<?xml version="1.0" encoding="UTF-8" standalone="no"?>
<!-- Created with Inkscape (http://www.inkscape.org/) -->

<svg
   width="48"
   height="48"
   viewBox="0 0 12.7 12.7"
   version="1.1"
   id="svg1"
   xml:space="preserve"
   xmlns="http://www.w3.org/2000/svg"
   xmlns:svg="http://www.w3.org/2000/svg"><defs
     id="defs1" /><g
     id="layer1"><g
       id="g1"
       transform="matrix(0.01581215,0,0,0.01581215,-1.7679468,-2.0864906)">
    <path
         id="php"
         fill="black"
         d="m 488,280 c 2,1 2,1 2,1 z m 56,0 c 2,1 2,1 2,1 z m -98,2 c 2,1 2,1 2,1 z m 142,2 c 2,1 2,1 2,1 z m 31,4 c 2,1 2,1 2,1 z m -290,16 c 2,1 2,1 2,1 z m 6,0 c 2,1 2,1 2,1 z m 352,0 c 2,1 2,1 2,1 z m -355,1 c 2,1 2,1 2,1 z m 241,14 c 2,1 2,1 2,1 z m -293,5 c 2,1 2,1 2,1 z m 130,0 c 2,1 2,1 2,1 z m 199,0 c 2,1 2,1 2,1 z m 79,19 c 2,1 2,1 2,1 z m -447,1 c 2,1 2,1 2,1 z m 223,4 c 2,1 2,1 2,1 z m -264,20 c 2,1 2,1 2,1 z m 561,5 c 2,1 2,1 2,1 z m 2,1 c 2,1 2,1 2,1 z m -202,26 c 2,1 2,1 2,1 z m 170,0 c 2,1 2,1 2,1 z m -343,1 c 2,1 2,1 2,1 z m 433,18 c 2,1 2,1 2,1 z m -51,6 c 2,1 2,1 2,1 z m -253,19 c 2,1 2,1 2,1 z m -18,2 c 2,1 2,1 2,1 z m 30,0 c 2,1 2,1 2,1 z m 3,1 c 2,1 2,1 2,1 z m 309,0 c 2,1 2,1 2,1 z m -121,1 c 2,1 2,1 2,1 z m -546,12 c 2,1 2,1 2,1 z m 370,8 c 2,1 2,1 2,1 z m 65,28 c 2,1 2,1 2,1 z m -187,24 c 2,1 2,1 2,1 z m 239,0 c 2,1 2,1 2,1 z m 14,4 c 2,1 2,1 2,1 z m -307,41 c 2,1 2,1 2,1 z m 64,2 c 2,1 2,1 2,1 z m 276,0 c 2,1 2,1 2,1 z m -467,45 c 2,1 2,1 2,1 z m 359,15 c 2,1 2,1 2,1 z m 190,5 c 2,1 2,1 2,1 z m -534,16 c 2,1 2,1 2,1 z m 504,0 c 2,1 2,1 2,1 z m 4,1 c 2,1 2,1 2,1 z m -494,7 c 2,1 2,1 2,1 z m 8,0 c 2,1 2,1 2,1 z m -70,7 c 2,1 2,1 2,1 z m 83,1 c 2,1 2,1 2,1 z m 515,2 c 2,1 2,1 2,1 z m -88,6 c 2,1 2,1 2,1 z m -2,1 c 2,1 2,1 2,1 z m -44,15 c 2,1 2,1 2,1 z m -4,1 c 2,1 2,1 2,1 z m -270,10 c 2,1 2,1 2,1 z m 221,1 c 2,1 2,1 2,1 z m -186,4 c 2,1 2,1 2,1 z m 139,39 c 2,1 2,1 2,1 z M 481,280 c 3,1 3,1 3,1 z m -174,32 c 0.66,0 1.32,0 2,0 -0.33,0.66 -0.66,1.32 -1,2 -0.33,-0.66 -0.66,-1.32 -1,-2 z m 406,0 c 3,1 3,1 3,1 z m -231,4 c 3,1 3,1 3,1 z m 139,10 c 3,1 3,1 3,1 z m 164,63 c 0.99,0.495 0.99,0.495 2,1 -0.99,0.495 -0.99,0.495 -2,1 0,-0.66 0,-1.32 0,-2 z m -221,11 c 0.33,0.66 0.66,1.32 1,2 -0.66,-0.33 -1.32,-0.66 -2,-1 0.33,-0.33 0.66,-0.66 1,-1 z m 252,13 c 0.66,0.66 1.32,1.32 2,2 -0.66,0 -1.32,0 -2,0 0,-0.66 0,-1.32 0,-2 z m -42,19 c 0.66,0 1.32,0 2,0 -0.33,0.66 -0.66,1.32 -1,2 -0.33,-0.66 -0.66,-1.32 -1,-2 z m -158,25 c 0.99,0.495 0.99,0.495 2,1 -0.99,0.495 -0.99,0.495 -2,1 0,-0.66 0,-1.32 0,-2 z m -238,2 c 0.33,0.66 0.66,1.32 1,2 -0.66,-0.33 -1.32,-0.66 -2,-1 0.33,-0.33 0.66,-0.66 1,-1 z m 231,29 c 0.33,0.66 0.66,1.32 1,2 -0.66,-0.33 -1.32,-0.66 -2,-1 0.33,-0.33 0.66,-0.66 1,-1 z m 126,176 c 3,1 3,1 3,1 z m -445,1 c 0.66,0.66 1.32,1.32 2,2 -0.66,0 -1.32,0 -2,0 0,-0.66 0,-1.32 0,-2 z m 21,7 c 0.66,0.66 1.32,1.32 2,2 -0.66,0 -1.32,0 -2,0 0,-0.66 0,-1.32 0,-2 z m 352,18 c 3,1 3,1 3,1 z m -24,6 c 3,1 3,1 3,1 z m -341,13 c 0.66,0 1.32,0 2,0 -0.33,0.66 -0.66,1.32 -1,2 -0.33,-0.66 -0.66,-1.32 -1,-2 z m 3,1 c 0.66,0 1.32,0 2,0 -0.33,0.66 -0.66,1.32 -1,2 -0.33,-0.66 -0.66,-1.32 -1,-2 z M 254,336 c 0.99,0.33 1.98,0.66 3,1 -0.99,0.33 -1.98,0.66 -3,1 0,-0.66 0,-1.32 0,-2 z m 18,88 c 1,4 1,4 1,4 z m 228,20 c 0.99,0.33 1.98,0.66 3,1 -0.99,0 -1.98,0 -3,0 0,-0.33 0,-0.66 0,-1 z m -372,22 c 0.99,0.33 1.98,0.66 3,1 -0.99,0 -1.98,0 -3,0 0,-0.33 0,-0.66 0,-1 z m 604,3 c 1,4 1,4 1,4 z m -604,3 c 1,4 1,4 1,4 z m 451,232 c 0.99,0.33 1.98,0.66 3,1 -0.99,0 -1.98,0 -3,0 0,-0.33 0,-0.66 0,-1 z m -163,35 c 4,1 4,1 4,1 z M 734,320 c 1.32,0 2.64,0 4,0 -0.33,0.66 -0.66,1.32 -1,2 -0.99,-0.66 -1.98,-1.32 -3,-2 z m -462,97 c 0.99,0.495 0.99,0.495 2,1 0,0.66 0,1.32 0,2 -0.66,0 -1.32,0 -2,0 0,-0.99 0,-1.98 0,-3 z m -36,215 c 0.99,0 1.98,0 3,0 0,0.66 0,1.32 0,2 -0.99,0 -1.98,0 -3,0 0,-0.66 0,-1.32 0,-2 z m 347,72 c 1.98,0.99 1.98,0.99 4,2 -1.32,-0.33 -2.64,-0.66 -4,-1 0,-0.33 0,-0.66 0,-1 z m -41,3 c 0.66,0.66 1.32,1.32 2,2 -1.32,-0.33 -2.64,-0.66 -4,-1 0.66,-0.33 1.32,-0.66 2,-1 z m -111,34 c 1.65,0 3.3,0 5,0 0,0.33 0,0.66 0,1 -1.65,0 -3.3,0 -5,0 0,-0.33 0,-0.66 0,-1 z M 616,325 c 1.32,0.33 2.64,0.66 4,1 -0.99,0.33 -1.98,0.66 -3,1 -0.33,-0.66 -0.66,-1.32 -1,-2 z m -83,-45 c 2.31,0 4.62,0 7,0 0,0.33 0,0.66 0,1 -2.31,0 -4.62,0 -7,0 0,-0.33 0,-0.66 0,-1 z M 433,542 c 0.33,0 0.66,0 1,0 0,1.65 0,3.3 0,5 -0.66,-0.33 -1.32,-0.66 -2,-1 0.33,-1.32 0.66,-2.64 1,-4 z m -297,31 c 0.99,1.32 1.98,2.64 3,4 -0.99,0.495 -0.99,0.495 -2,1 -0.33,-1.65 -0.66,-3.3 -1,-5 z M 650,297 c 3.3,0.33 6.6,0.66 10,1 0,0.33 0,0.66 0,1 -4.01805,0.84099 -7.01804,1.05405 -11,0 0.33,-0.66 0.66,-1.32 1,-2 z m 71,53 c -0.33,0.66 -0.66,1.32 -1,2 -5.75,-0.75 -5.75,-0.75 -8,-3 3.76625,-1.25542 5.37189,-0.37062 9,1 z m 9.125,1.875 c 0.94875,0.0412 1.8975,0.0825 2.875,0.125 0,0.99 0,1.98 0,3 -2.875,0.625 -2.875,0.625 -6,1 -0.66,-0.66 -1.32,-1.32 -2,-2 2,-2 2,-2 5.125,-2.125 z M 778,381 c 2.875,0.25 2.875,0.25 6,1 1.375,2.0625 1.375,2.0625 2,4 -3.37504,-1.18582 -5.64723,-2.27574 -8,-5 z m 8,5 c 1.98,0 3.96,0 6,0 0.33,1.65 0.66,3.3 1,5 -0.59812,-0.30938 -1.19625,-0.61875 -1.8125,-0.9375 -2.27707,-1.1646 -2.27707,-1.1646 -5.1875,-2.0625 0,-0.66 0,-1.32 0,-2 z m -277,-1 c 0.33,0 0.66,0 1,0 -0.33,3.63 -0.66,7.26 -1,11 -0.33,0 -0.66,0 -1,0 -0.22175,-1.45635 -0.42699,-2.91523 -0.625,-4.375 -0.11602,-0.81211 -0.23203,-1.62422 -0.35156,-2.46094 -0.008,-0.71414 -0.0155,-1.42828 -0.0234,-2.16406 0.66,-0.66 1.32,-1.32 2,-2 z m -304,25 c 1.32,0.66 2.64,1.32 4,2 -1.65,1.32 -3.3,2.64 -5,4 -0.0427,-1.66612 -0.0406,-3.33383 0,-5 0.33,-0.33 0.66,-0.66 1,-1 z m 70,6 c 0.33,0 0.66,0 1,0 0.33,3.3 0.66,6.6 1,10 -0.99,0.33 -1.98,0.66 -3,1 0.33,-3.63 0.66,-7.26 1,-11 z m 47,29 c 0.33,0 0.66,0 1,0 -0.33,3.3 -0.66,6.6 -1,10 -2,-2 -2,-2 -2.125,-4.625 0.0412,-0.78375 0.0825,-1.5675 0.125,-2.375 0.66,0 1.32,0 2,0 0,-0.99 0,-1.98 0,-3 z m 56,54 c 0.66,1.32 1.32,2.64 2,4 -1.375,2 -1.375,2 -3,4 -0.66,0 -1.32,0 -2,0 1.875,-5.75 1.875,-5.75 3,-8 z m 366,51 c 0,0.66 0,1.32 0,2 -1.96148,1.38938 -3.96167,2.72604 -6,4 -0.66,-0.33 -1.32,-0.66 -2,-1 4.83871,-5 4.83871,-5 8,-5 z m -527,72 c 2.31,1.65 4.62,3.3 7,5 -1.32,0.33 -2.64,0.66 -4,1 -1.75,-1.25 -1.75,-1.25 -3,-3 0,-0.99 0,-1.98 0,-3 z m 7,6 c 2.31,1.65 4.62,3.3 7,5 -0.99,0.33 -1.98,0.66 -3,1 -2.1875,-1.25 -2.1875,-1.25 -4,-3 0,-0.99 0,-1.98 0,-3 z m 134.6875,63.3125 c 1.09312,0.22687 2.18625,0.45375 3.3125,0.6875 -3.40195,2.09351 -6.05272,2.17942 -10,2 2.10714,-3.09874 2.81994,-3.01526 6.6875,-2.6875 z M 291,704 c 5.53846,-0.36923 5.53846,-0.36923 7.875,1.5 0.37125,0.495 0.7425,0.99 1.125,1.5 -0.99,0.495 -0.99,0.495 -2,1 -2.35982,-0.93579 -4.69631,-1.93348 -7,-3 0,-0.33 0,-0.66 0,-1 z m 96,-409 c -3.31371,2.20914 -4.3446,2.22482 -8.1875,2.125 -0.90105,-0.0181 -1.80211,-0.0361 -2.73047,-0.0547 C 375.39496,297.0471 374.70789,297.0239 374,297 c 4.46552,-2.31791 8.05609,-3.64797 13,-2 z m -120,75 c -2.85307,2.32472 -5.54075,3.75083 -9,5 2.18389,-4.83577 3.79358,-5.13701 9,-5 z m 131,37 c 3.87132,0.57353 6.08173,2.48704 9,5 -1.32,0.33 -2.64,0.66 -4,1 0,-0.66 0,-1.32 0,-2 -0.99,-0.33 -1.98,-0.66 -3,-1 0,-0.66 0,-1.32 0,-2 -0.66,-0.33 -1.32,-0.66 -2,-1 z m 58,0 c 0.33,0 0.66,0 1,0 0.33,3.3 0.66,6.6 1,10 -0.66,0 -1.32,0 -2,0 -0.33,0.99 -0.66,1.98 -1,3 0.33,-4.29 0.66,-8.58 1,-13 z m 134,115 c -0.33,3.63 -0.66,7.26 -1,11 -0.33,0 -0.66,0 -1,0 -0.33,-3.3 -0.66,-6.6 -1,-10 2,-1 2,-1 3,-1 z m -458,29 c 2.39224,2.39224 2.67586,3.6776 3,7 -0.66,0.99 -1.32,1.98 -2,3 -1.60726,-3.21451 -1.05748,-6.43613 -1,-10 z m 56,90 c 4.75,0.75 4.75,0.75 7,3 -0.33,0.99 -0.66,1.98 -1,3 -2.02055,-1.6417 -4.02043,-3.30912 -6,-5 0,-0.33 0,-0.66 0,-1 z m 135,40 c 4.95,0.99 4.95,0.99 10,2 -4.17908,2.08954 -4.80411,2.16553 -9,1 -0.33,-0.99 -0.66,-1.98 -1,-3 z m 398,23 c 0.99,0.33 1.98,0.66 3,1 -0.99,0.495 -0.99,0.495 -2,1 -0.65213,2.02463 -0.65213,2.02463 -1,4 -0.99,0 -1.98,0 -3,0 1.875,-4.875 1.875,-4.875 3,-6 z M 677,336 c 4.31775,0.50797 8.03302,1.19683 12,3 0,0.33 0,0.66 0,1 -4.87664,0.34833 -7.7705,-0.58314 -12,-3 0,-0.33 0,-0.66 0,-1 z m 84,32 c 0.99,0.33 1.98,0.66 3,1 0,0.66 0,1.32 0,2 1.32,0.66 2.64,1.32 4,2 0,0.66 0,1.32 0,2 -2.91517,-1.07401 -4.7781,-1.7781 -7,-4 0,-0.99 0,-1.98 0,-3 z m -608,61 c 0,3.57576 -1.08841,5.05296 -3,8 -0.66,-0.99 -1.32,-1.98 -2,-3 1,-3 1,-3 3.0625,-4.1875 0.63937,-0.26813 1.27875,-0.53625 1.9375,-0.8125 z m 117,18 c 0.33,0 0.66,0 1,0 0.24934,1.60116 0.47379,3.2062 0.6875,4.8125 0.19143,1.33998 0.19143,1.33998 0.38672,2.70703 C 272,457 272,457 269,460 c 0.33,-4.29 0.66,-8.58 1,-13 z M 156,604 c 3.465,1.98 3.465,1.98 7,4 -0.33,0.66 -0.66,1.32 -1,2 -0.99,0 -1.98,0 -3,0 -3,-3.33333 -3,-3.33333 -3,-6 z m 441,-4 c 0.33,0 0.66,0 1,0 0,2.64 0,5.28 0,8 -0.66,0 -1.32,0 -2,0 -0.33,0.99 -0.66,1.98 -1,3 0,-2.31 0,-4.62 0,-7 0.66,0 1.32,0 2,0 0,-1.32 0,-2.64 0,-4 z m -304,2 c 0.66,0.33 1.32,0.66 2,1 -0.33,3.3 -0.66,6.6 -1,10 -2.2661,-4.5322 -1.92736,-6.17773 -1,-11 z m -62,32 c 2.88438,1.293 4.87219,2.65941 7,5 -1.8125,0.6875 -1.8125,0.6875 -4,1 -1.75,-1.25 -1.75,-1.25 -3,-3 0,-0.99 0,-1.98 0,-3 z m 52,64 c 1.32,0.33 2.64,0.66 4,1 0.33,1.32 0.66,2.64 1,4 -2.31,-0.66 -4.62,-1.32 -7,-2 0.66,-0.99 1.32,-1.98 2,-3 z m 113.625,2.9375 c 1.50434,0.0135 1.50434,0.0135 3.03906,0.0273 0.77086,0.0116 1.54172,0.0232 2.33594,0.0352 0,0.33 0,0.66 0,1 -1.78871,0.38885 -3.58113,0.76069 -5.375,1.125 -0.99773,0.20883 -1.99547,0.41766 -3.02344,0.63281 -0.85851,0.0799 -1.71703,0.15985 -2.60156,0.24219 -0.66,-0.66 -1.32,-1.32 -2,-2 2.64458,-1.32229 4.67761,-1.09677 7.625,-1.0625 z M 757,332 c 5.75,1.75 5.75,1.75 8,4 0,0.99 0,1.98 0,3 -0.99,-0.33 -1.98,-0.66 -3,-1 0,-0.66 0,-1.32 0,-2 -0.63937,-0.10312 -1.27875,-0.20625 -1.9375,-0.3125 -0.68062,-0.22688 -1.36125,-0.45375 -2.0625,-0.6875 -0.33,-0.99 -0.66,-1.98 -1,-3 z m -588,74 c 0,3.10552 -0.53937,4.35261 -2,7 -1.32,0 -2.64,0 -4,0 1.39333,-3.3672 2.97893,-4.98595 6,-7 z m -1,63 c 1.15957,3.47872 0.77457,4.3422 -0.4375,7.6875 -0.43119,1.21236 -0.43119,1.21236 -0.87109,2.44922 -0.22817,0.61488 -0.45633,1.22976 -0.69141,1.86328 -2.04688,-3.71875 -2.04688,-3.71875 -1.625,-6.25 0.20625,-0.5775 0.4125,-1.155 0.625,-1.75 0.66,0 1.32,0 2,0 0.33,-1.32 0.66,-2.64 1,-4 z m 690,3 c 0.33,0.66 0.66,1.32 1,2 0.66,0 1.32,0 2,0 -0.33,2.64 -0.66,5.28 -1,8 -2.13262,-3.19893 -2.59022,-5.22998 -3,-9 0.33,-0.33 0.66,-0.66 1,-1 z m -436,44 c 0,4.24645 -1.81751,6.38525 -4,10 -0.33,-0.66 -0.66,-1.32 -1,-2 2.48387,-6.74194 2.48387,-6.74194 5,-8 z m 286,7 c -0.33,0.66 -0.66,1.32 -1,2 -3.64653,1.11422 -6.33291,0.94297 -10,0 0,-0.33 0,-0.66 0,-1 7.625,-2.125 7.625,-2.125 11,-1 z M 262,654 c 3.77545,1.09069 6.47043,1.90831 9,5 -3.75,1.125 -3.75,1.125 -6,0 0,-0.66 0,-1.32 0,-2 -0.66,0 -1.32,0 -2,0 -0.33,-0.99 -0.66,-1.98 -1,-3 z m 409,71 c -3.82518,2.39073 -7.59666,2.55967 -12,3 2,-3 2,-3 3.75,-3.75 2.8963,-0.32181 5.40834,0.16875 8.25,0.75 z m -64,10 c 3.63,0.33 7.26,0.66 11,1 0,0.33 0,0.66 0,1 -6.435,0.495 -6.435,0.495 -13,1 0.66,-0.99 1.32,-1.98 2,-3 z M 346,305 c -1.65,0.33 -3.3,0.66 -5,1 0,0.66 0,1.32 0,2 -2.57857,0.92092 -3.59433,1.18507 -6.14063,0.0234 C 334.24578,307.6857 333.63219,307.34797 333,307 c 1.60065,-0.53155 3.20569,-1.04988 4.8125,-1.5625 0.89332,-0.29004 1.78664,-0.58008 2.70703,-0.87891 C 343,304 343,304 346,305 Z m 46,21 c -0.33,0.66 -0.66,1.32 -1,2 -3.96,0 -7.92,0 -12,0 4.75621,-3.17081 7.41195,-3.14301 13,-2 z m -164,28 c 0.66,0.33 1.32,0.66 2,1 0,0.99 0,1.98 0,3 -2.64,0.33 -5.28,0.66 -8,1 1.93255,-2.02457 3.63159,-3.42106 6,-5 z m 269,89 c 0.99,0.33 1.98,0.66 3,1 -0.30938,0.68063 -0.61875,1.36125 -0.9375,2.0625 -1.19621,3.30716 -1.65255,6.45296 -2.0625,9.9375 -0.33,0 -0.66,0 -1,0 -0.0269,-1.97909 -0.0463,-3.95829 -0.0625,-5.9375 -0.0116,-1.10215 -0.0232,-2.2043 -0.0352,-3.33984 C 496,444 496,444 497,443 Z m 280,-2 c 2.76223,2.76223 2.57856,5.20707 3,9 -1.32,-0.33 -2.64,-0.66 -4,-1 0.33,-2.64 0.66,-5.28 1,-8 z m -641,15 c 2,4 2,4 1.125,7.25 -0.37125,0.9075 -0.7425,1.815 -1.125,2.75 -0.99,0 -1.98,0 -3,0 0.99,-3.3 1.98,-6.6 3,-10 z m 646,26 c 0.33,0 0.66,0 1,0 -0.33,3.3 -0.66,6.6 -1,10 -3,-3 -3,-3 -3.1875,-5.6875 0.0619,-0.76313 0.12375,-1.52625 0.1875,-2.3125 0.66,0 1.32,0 2,0 0.33,-0.66 0.66,-1.32 1,-2 z m -91.83594,42.80469 c 1.21816,0.0348 1.21816,0.0348 2.46094,0.0703 1.2259,0.0271 1.2259,0.0271 2.47656,0.0547 0.93973,0.0348 0.93973,0.0348 1.89844,0.0703 -0.33,0.99 -0.66,1.98 -1,3 -3.3,-0.33 -6.6,-0.66 -10,-1 2,-2 2,-2 4.16406,-2.19531 z M 201,608 c 1.32176,0.90326 2.63215,1.82318 3.9375,2.75 0.7309,0.51047 1.4618,1.02094 2.21484,1.54687 2.05571,1.89491 2.47435,2.97739 2.84766,5.70313 -1.13199,-0.90802 -2.25532,-1.82684 -3.375,-2.75 -0.62648,-0.51047 -1.25297,-1.02094 -1.89844,-1.54688 C 202.91688,611.91801 201.99883,610.3205 201,608 Z m 584,66 c 0.66,0.33 1.32,0.66 2,1 -0.75,1.9375 -0.75,1.9375 -2,4 -2.125,0.75 -2.125,0.75 -4,1 -0.33,-0.99 -0.66,-1.98 -1,-3 2.375,-1.5625 2.375,-1.5625 5,-3 z m -470,37 c 3.1875,0.875 3.1875,0.875 6,2 0,0.66 0,1.32 0,2 0.66,0.33 1.32,0.66 2,1 -3.94926,-0.55106 -7.3492,-1.38935 -11,-3 0.99,-0.66 1.98,-1.32 3,-2 z M 209,367 c 0.66,0.33 1.32,0.66 2,1 -1.65,1.98 -3.3,3.96 -5,6 -1.32,-0.33 -2.64,-0.66 -4,-1 2.31,-1.98 4.62,-3.96 7,-6 z m 422,35 c 2.125,0.375 2.125,0.375 4,1 -0.8125,1.9375 -0.8125,1.9375 -2,4 -0.99,0.33 -1.98,0.66 -3,1 -0.625,-1.875 -0.625,-1.875 -1,-4 0.66,-0.66 1.32,-1.32 2,-2 z m 38,56 c 0.33,0 0.66,0 1,0 0,2.97 0,5.94 0,9 -0.66,0 -1.32,0 -2,0 -0.33,0.99 -0.66,1.98 -1,3 0.14038,-1.81293 0.28745,-3.62534 0.4375,-5.4375 0.0812,-1.00934 0.16242,-2.01867 0.24609,-3.05859 C 668,459 668,459 669,458 Z m -224,19 c 3,4 3,4 3.4375,6.5625 C 448,486 448,486 444,489 c 0.33,-3.96 0.66,-7.92 1,-12 z m 215,36 c -0.33,3.63 -0.66,7.26 -1,11 0.99,0.33 1.98,0.66 3,1 -1.32,0.33 -2.64,0.66 -4,1 -0.33,-3.96 -0.66,-7.92 -1,-12 2,-1 2,-1 3,-1 z m 199,28 c 0.88935,3.30331 1.46274,6.62294 2,10 -0.99,0 -1.98,0 -3,0 -1.31223,-3.9367 -0.24296,-6.12488 1,-10 z m 30,12 c 1.485,0.99 1.485,0.99 3,2 -0.49798,3.73488 -0.87492,5.81238 -3,9 -0.19491,-1.45736 -0.38069,-2.91595 -0.5625,-4.375 -0.10441,-0.81211 -0.20883,-1.62422 -0.31641,-2.46094 C 888,555 888,555 889,553 Z m -50,83 c -1.49098,3.79521 -3.75701,5.61043 -7,8 -0.3125,-2.3125 -0.3125,-2.3125 0,-5 2.38329,-1.81883 3.95818,-3 7,-3 z m -153,52 c -1.65,0.33 -3.3,0.66 -5,1 0,0.66 0,1.32 0,2 -2.97,0 -5.94,0 -9,0 9.47826,-4.73913 9.47826,-4.73913 14,-3 z m 30.4375,21.8125 c 0.51562,0.39188 1.03125,0.78375 1.5625,1.1875 -1.2684,0.50615 -2.53983,1.00469 -3.8125,1.5 -1.06154,0.41766 -1.06154,0.41766 -2.14453,0.84375 C 710,714 710,714 707,714 c 0,-0.66 0,-1.32 0,-2 6.4,-3.2 6.4,-3.2 9.4375,-2.1875 z M 439,286 c 0,0.33 0,0.66 0,1 -6.09339,1.88341 -10.72532,2.07483 -17,1 0,-0.33 0,-0.66 0,-1 5.7204,-0.83206 11.2224,-1.12037 17,-1 z m 198,8 c 1.5841,0.11488 3.16729,0.24235 4.75,0.375 1.32258,0.10441 1.32258,0.10441 2.67187,0.21094 C 647,295 647,295 651,297 c -3.63,0 -7.26,0 -11,0 0,-0.66 0,-1.32 0,-2 -0.99,-0.33 -1.98,-0.66 -3,-1 z m 197,136 c 3.26461,1.80413 4.8893,2.83395 7,6 -0.375,2.1875 -0.375,2.1875 -1,4 -1.00579,-1.28717 -2.00447,-2.57989 -3,-3.875 -0.55688,-0.7193 -1.11375,-1.43859 -1.6875,-2.17969 C 834,432 834,432 834,430 Z m -239,53 c 0.33,0 0.66,0 1,0 0.0816,4.16138 -0.0175,7.94725 -1,12 -0.33,0 -0.66,0 -1,0 -0.33,-1.65 -0.66,-3.3 -1,-5 -0.33,0 -0.66,0 -1,0 0,-1.65 0,-3.3 0,-5 0.99,0.495 0.99,0.495 2,1 0.33,-0.99 0.66,-1.98 1,-3 z m -155,26 c 0.33,0 0.66,0 1,0 0.22227,1.76914 0.42734,3.54044 0.625,5.3125 0.11602,0.98613 0.23203,1.97227 0.35156,2.98828 C 442,520 442,520 440,523 c -1.41778,-2.83557 -0.86258,-4.99087 -0.5625,-8.125 0.10184,-1.0957 0.20367,-2.19141 0.30859,-3.32031 0.0838,-0.84305 0.16758,-1.6861 0.25391,-2.55469 z m 209,62 c 0.33,0 0.66,0 1,0 0.18451,10.55809 0.18451,10.55809 -1,15 -0.33,0 -0.66,0 -1,0 -1.18609,-5.69325 -0.66252,-9.42567 1,-15 z m -371,91 c 3.91212,1.15585 6.8745,2.35535 10,5 -2.64,0 -5.28,0 -8,0 -0.66,-1.65 -1.32,-3.3 -2,-5 z M 706,344 c 2.625,0.375 2.625,0.375 5,1 0.33,1.32 0.66,2.64 1,4 -5.75,-0.75 -5.75,-0.75 -8,-3 0.66,-0.66 1.32,-1.32 2,-2 z m -321,60 c 2.64,0.33 5.28,0.66 8,1 0,0.99 0,1.98 0,3 -2.64,0 -5.28,0 -8,0 0,-1.33333 0,-2.66667 0,-4 z m 356,1 c 1.482,0.44909 2.96055,0.90957 4.4375,1.375 0.82371,0.25523 1.64742,0.51047 2.49609,0.77344 C 750,408 750,408 751,410 c -1.6875,0.6875 -1.6875,0.6875 -4,1 -2.6875,-1.25 -2.6875,-1.25 -5,-3 -0.33,-0.99 -0.66,-1.98 -1,-3 z m -68,35 c 0.33,0 0.66,0 1,0 -0.11444,2.08394 -0.24196,4.16716 -0.375,6.25 -0.0696,1.16016 -0.13922,2.32031 -0.21094,3.51562 -0.37654,2.94132 -0.89147,4.73387 -2.41406,7.23438 -0.0544,-1.89551 -0.093,-3.79148 -0.125,-5.6875 -0.0232,-1.05574 -0.0464,-2.11148 -0.0703,-3.19922 0.19672,-3.1358 0.86473,-5.28973 2.19531,-8.11328 z m -129,8 c 3.875,0.875 3.875,0.875 5,2 0.0726,2.18639 0.0837,4.375 0.0625,6.5625 -0.009,1.19754 -0.0181,2.39508 -0.0273,3.62891 -0.0116,0.92683 -0.0232,1.85367 -0.0352,2.80859 -0.33,0 -0.66,0 -1,0 -0.12117,-0.83144 -0.24234,-1.66289 -0.36719,-2.51953 -0.16758,-1.08668 -0.33515,-2.17336 -0.50781,-3.29297 -0.16242,-1.07895 -0.32484,-2.15789 -0.49219,-3.26953 C 546.14868,450.82678 546.14868,450.82678 544,448 Z m 54,17 c 0.33,0 0.66,0 1,0 0.36923,5.53846 0.36923,5.53846 -1.5,7.875 -0.7425,0.55687 -0.7425,0.55687 -1.5,1.125 -1.3544,-2.70879 -1.06501,-5.00933 -1,-8 0.99,0.495 0.99,0.495 2,1 0.33,-0.66 0.66,-1.32 1,-2 z m 196,167 c 0.66,0.33 1.32,0.66 2,1 -0.39804,2.88576 -0.79009,3.8219 -3.0625,5.75 -0.63937,0.4125 -1.27875,0.825 -1.9375,1.25 -0.66,-0.33 -1.32,-0.66 -2,-1 0.39804,-2.88576 0.79009,-3.8219 3.0625,-5.75 0.63937,-0.4125 1.27875,-0.825 1.9375,-1.25 z m -362,77 c 4.29,0.33 8.58,0.66 13,1 0,0.33 0,0.66 0,1 -5.94,0.495 -5.94,0.495 -12,1 -0.33,-0.99 -0.66,-1.98 -1,-3 z M 663,486 c 0.33,0 0.66,0 1,0 0,3.96 0,7.92 0,12 -0.66,0 -1.32,0 -2,0 -0.33,0.99 -0.66,1.98 -1,3 0.96355,-10.55809 0.96355,-10.55809 2,-15 z m -3,16 c 0.33,0 0.66,0 1,0 0,3.63 0,7.26 0,11 -0.66,0 -1.32,0 -2,0 -0.33,0.99 -0.66,1.98 -1,3 0.14134,-1.7712 0.28823,-3.54195 0.4375,-5.3125 0.0812,-0.98613 0.16242,-1.97227 0.24609,-2.98828 C 659,505 659,505 660,502 Z m -269,47 c 0.66,0.33 1.32,0.66 2,1 0,0.99 0,1.98 0,3 -1.98,0.99 -3.96,1.98 -6,3 -0.33,-1.32 -0.66,-2.64 -1,-4 2.375,-1.5625 2.375,-1.5625 5,-3 z m 339,8 c 0,0.99 0,1.98 0,3 -4.625,2.125 -4.625,2.125 -8,1 -0.66,-0.66 -1.32,-1.32 -2,-2 1.28788,-0.53013 2.58047,-1.04883 3.875,-1.5625 0.7193,-0.29004 1.43859,-0.58008 2.17969,-0.87891 C 728,556 728,556 730,557 Z m -253,-1 c 0.33,0 0.66,0 1,0 1.25,7.625 1.25,7.625 -1,11 -0.99,0 -1.98,0 -3,0 0.99,-3.63 1.98,-7.26 3,-11 z m 396,36 c 0.66,0 1.32,0 2,0 -1.64178,4.7761 -4.26547,8.79383 -7,13 -0.66,-0.99 -1.32,-1.98 -2,-3 0.99,-0.33 1.98,-0.66 3,-1 0,-0.99 0,-1.98 0,-3 0.66,0 1.32,0 2,0 0,-0.99 0,-1.98 0,-3 0.66,0 1.32,0 2,0 0,-0.99 0,-1.98 0,-3 z m -176,92 c -1.7431,2.11007 -2.86338,2.9556 -5.5,3.8125 C 689,688 689,688 686,686 c 1.26608,-0.53229 2.5381,-1.05045 3.8125,-1.5625 0.7077,-0.29004 1.41539,-0.58008 2.14453,-0.87891 C 694,683 694,683 697,684 Z m -9,-378 c 4.455,0.99 4.455,0.99 9,2 -0.99,0.99 -1.98,1.98 -3,3 -3.1875,-0.3125 -3.1875,-0.3125 -6,-1 0,-1.32 0,-2.64 0,-4 z m 156,139 c 1.32,0 2.64,0 4,0 1.42259,3.82321 2.24042,6.91281 2,11 -2.01969,-2.57052 -3.54255,-5.0851 -5,-8 -0.66,-0.66 -1.32,-1.32 -2,-2 0.33,-0.33 0.66,-0.66 1,-1 z M 175,569 c 2.65183,1.32592 3.25136,2.86562 4.6875,5.4375 0.45762,0.80309 0.91523,1.60617 1.38672,2.43359 0.30551,0.70254 0.61101,1.40508 0.92578,2.12891 -0.33,0.66 -0.66,1.32 -1,2 -3.40844,-2.88406 -4.86591,-4.37083 -5.8125,-8.8125 C 175.12563,571.13562 175.06375,570.08375 175,569 Z m 7,14 c 2.375,0.6875 2.375,0.6875 5,2 1.56938,2.91456 2,4.67942 2,8 -0.66,0 -1.32,0 -2,0 -1.28906,-1.67969 -1.28906,-1.67969 -2.625,-3.875 -0.44602,-0.7193 -0.89203,-1.43859 -1.35156,-2.17969 C 182,585 182,585 182,583 Z m 464,15 c -0.33,3.63 -0.66,7.26 -1,11 -3.1613,-4.21507 -3.33677,-5.06071 -3,-10 3,-1 3,-1 4,-1 z m 2,99 c 0,0.33 0,0.66 0,1 -1.65,0.33 -3.3,0.66 -5,1 -0.33,0.99 -0.66,1.98 -1,3 -0.99,0.33 -1.98,0.66 -3,1 -2.6875,-1.9375 -2.6875,-1.9375 -5,-4 4.84242,-1.33584 8.93438,-2.25328 14,-2 z M 407,412 c 2.9922,1.3637 5.29027,2.94908 7.75,5.125 0.92039,0.80824 0.92039,0.80824 1.85937,1.63281 0.45891,0.40992 0.91782,0.81985 1.39063,1.24219 -0.33,0.66 -0.66,1.32 -1,2 -1.46484,-1.30208 -2.92969,-2.60417 -4.39453,-3.90625 C 410.91055,416.71849 410.91055,416.71849 408,417 c -0.33,-1.65 -0.66,-3.3 -1,-5 z m -232,41 c 0.33,0.66 0.66,1.32 1,2 -0.99609,2.60156 -0.99609,2.60156 -2.4375,5.625 -0.47309,1.00289 -0.94617,2.00578 -1.43359,3.03906 -0.37254,0.77086 -0.74508,1.54172 -1.12891,2.33594 -0.33,0 -0.66,0 -1,0 -0.34731,-4.86239 0.4769,-7.82719 3,-12 0.66,-0.33 1.32,-0.66 2,-1 z M 468,346 c 2.4375,0.375 2.4375,0.375 5,1 0.33,0.66 0.66,1.32 1,2 -1.98,1.32 -3.96,2.64 -6,4 -0.66,-1.32 -1.32,-2.64 -2,-4 0.66,-0.99 1.32,-1.98 2,-3 z m 260,55 c 4.29,0.99 8.58,1.98 13,3 -4.21629,2.10815 -6.39791,2.177 -11,2 0.33,-0.66 0.66,-1.32 1,-2 -0.99,-0.33 -1.98,-0.66 -3,-1 0,-0.66 0,-1.32 0,-2 z m 29,16 c 7.57143,1.85714 7.57143,1.85714 10,5 -0.33,0.66 -0.66,1.32 -1,2 -2.37949,-0.17626 -3.70226,-0.6972 -5.37891,-2.40234 C 759.37885,420.09351 758.18624,418.5487 757,417 Z m -335,11 c 2.9707,2.54631 4.47758,5.4223 6,9 -0.33,0.66 -0.66,1.32 -1,2 -1.9276,-1.67617 -2.90535,-2.59772 -3.5,-5.125 -0.165,-0.61875 -0.33,-1.2375 -0.5,-1.875 -0.99,-0.33 -1.98,-0.66 -3,-1 1,-2 1,-2 2,-3 z m -50,17 c 3.81287,1.44626 5.32707,3.30195 7,7 -0.3125,2.3125 -0.3125,2.3125 -1,4 -3.09593,-3.50872 -4.74195,-6.49197 -6,-11 z m 424,227 c -4.455,2.97 -4.455,2.97 -9,6 -0.66,-0.33 -1.32,-0.66 -2,-1 2.31994,-4.76198 2.31994,-4.76198 5.5,-5.875 C 793,671 793,671 796,672 Z m -87,8 c -1,3 -1,3 -3.375,4.25 C 703,685 703,685 700,684 c 0.33,-0.33 0.66,-0.66 1,-1 -0.99,-0.33 -1.98,-0.66 -3,-1 1.26608,-0.53229 2.5381,-1.05045 3.8125,-1.5625 0.7077,-0.29004 1.41539,-0.58008 2.14453,-0.87891 C 706,679 706,679 709,680 Z M 408,323 c 0,0.33 0,0.66 0,1 -5.38027,1.19089 -10.45291,2.29195 -16,2 1.32,-0.33 2.64,-0.66 4,-1 0,-0.66 0,-1.32 0,-2 4.08443,-1.53166 7.79456,-0.63082 12,0 z m 269,12 c 0,0.66 0,1.32 0,2 1.65,0.33 3.3,0.66 5,1 -3.87195,1.29065 -6.44233,0.22324 -10.1875,-0.9375 -0.9813,-0.29294 -0.9813,-0.29294 -1.98242,-0.5918 C 668.21773,335.98817 666.60854,335.4951 665,335 c 4.56153,-2.7739 7.0808,-1.47576 12,0 z m -413,-1 c 0.66,0.33 1.32,0.66 2,1 -0.61875,0.2475 -1.2375,0.495 -1.875,0.75 -2.27502,1.07396 -2.27502,1.07396 -3.125,3.3125 -1,1.9375 -1,1.9375 -3.125,2.6875 -0.92813,0.12375 -0.92813,0.12375 -1.875,0.25 0,-0.66 0,-1.32 0,-2 -0.66,-0.33 -1.32,-0.66 -2,-1 1.61992,-0.86376 3.24612,-1.71576 4.875,-2.5625 0.90492,-0.47566 1.80984,-0.95133 2.74219,-1.44141 C 262.79668,334.50303 262.79668,334.50303 264,334 Z m 310,72 c 3.21853,0.63066 5.50801,1.78021 8.25,3.5625 0.70641,0.45504 1.41281,0.91008 2.14062,1.37891 0.79665,0.524 0.79665,0.524 1.60938,1.05859 -3,1 -3,1 -4.9375,0.1875 -0.68062,-0.39188 -1.36125,-0.78375 -2.0625,-1.1875 -0.72187,-0.30938 -1.44375,-0.61875 -2.1875,-0.9375 C 575,409 575,409 574,406 Z m 288,6 c 4.94151,2.40016 7.04331,5.52273 10,10 -0.33,0.66 -0.66,1.32 -1,2 -3.25516,-3.16474 -6.32009,-6.32753 -9,-10 0,-0.66 0,-1.32 0,-2 z m -17,163 c 2,2 2,2 2,5 -0.99,0.495 -0.99,0.495 -2,1 -0.72159,1.64363 -1.39351,3.3105 -2,5 -0.99,-0.33 -1.98,-0.66 -3,-1 1.33488,-3.59391 2.96023,-6.75491 5,-10 z M 744,326 c 1.41965,0.42772 2.83562,0.86766 4.25,1.3125 1.18336,0.36545 1.18336,0.36545 2.39062,0.73828 C 753,329 753,329 757,332 c -3.3,-0.33 -6.6,-0.66 -10,-1 0,-0.66 0,-1.32 0,-2 -0.66,0 -1.32,0 -2,0 -0.33,-0.99 -0.66,-1.98 -1,-3 z M 451,438 c 0.33,0 0.66,0 1,0 0.19533,1.76999 0.38099,3.54104 0.5625,5.3125 0.10441,0.98613 0.20883,1.97227 0.31641,2.98828 C 453,449 453,449 452,452 c 0,0.66 0,1.32 0,2 -0.66,0 -1.32,0 -2,0 -0.33,0.66 -0.66,1.32 -1,2 0.14195,-2.06277 0.28872,-4.12521 0.4375,-6.1875 0.0812,-1.14856 0.16242,-2.29711 0.24609,-3.48047 C 449.95404,443.48402 450.37522,440.7879 451,438 Z m -185,33 c 2.45812,3.68717 2.31118,5.64346 2,10 -0.99,1.485 -0.99,1.485 -2,3 -0.39388,2.32388 -0.73486,4.65794 -1,7 -0.33,0 -0.66,0 -1,0 -0.26404,-6.86516 0.74158,-13.25847 2,-20 z m 164,10 c 0.33,0 0.66,0 1,0 -0.0116,0.59168 -0.0232,1.18336 -0.0352,1.79297 -0.0616,5.07432 -0.0616,5.07432 0.66016,10.08203 C 432,495 432,495 430,498 c -2.61616,-3.92424 -1.76128,-6.60608 -1,-11 0.18563,-1.155 0.37125,-2.31 0.5625,-3.5 0.14438,-0.825 0.28875,-1.65 0.4375,-2.5 z M 229,672 c 3.63,0 7.26,0 11,0 0,1.32 0,2.64 0,4 -0.78375,-0.18562 -1.5675,-0.37125 -2.375,-0.5625 -2.5959,-0.69712 -2.5959,-0.69712 -4.625,0.5625 -1.32,-1.32 -2.64,-2.64 -4,-4 z m 497,1 c -0.33,0.66 -0.66,1.32 -1,2 -0.66,0 -1.32,0 -2,0 -0.33,0.99 -0.66,1.98 -1,3 -2.64,-0.33 -5.28,-0.66 -8,-1 4.2732,-2.8488 6.78169,-4.28991 12,-4 z M 534,441 c 6.625,0.75 6.625,0.75 10,3 -0.33,1.32 -0.66,2.64 -1,4 -2.31,-0.99 -4.62,-1.98 -7,-3 0.33,-0.66 0.66,-1.32 1,-2 -0.99,-0.66 -1.98,-1.32 -3,-2 z m 181,-1 c 1.98,0 3.96,0 6,0 0,1.32 0,2.64 0,4 0.99,0 1.98,0 3,0 0,1.32 0,2.64 0,4 -2.9541,-1.37155 -5.44008,-2.98864 -8,-5 0.33,-0.33 0.66,-0.66 1,-1 -0.66,-0.66 -1.32,-1.32 -2,-2 z m 39,252 c 0.99,0.66 1.98,1.32 3,2 -1.95331,1.03042 -3.91282,2.04909 -5.875,3.0625 -1.09055,0.56848 -2.18109,1.13695 -3.30469,1.72266 -0.9307,0.40089 -1.8614,0.80179 -2.82031,1.21484 -0.66,-0.33 -1.32,-0.66 -2,-1 2.18517,-2.40576 4.2592,-3.79536 7.1875,-5.1875 1.07314,-0.51627 1.07314,-0.51627 2.16797,-1.04297 C 752.89816,692.51559 753.44086,692.26164 754,692 Z M 512,350 c 0.99,0.33 1.98,0.66 3,1 0,2.97 0,5.94 0,9 -0.66,0 -1.32,0 -2,0 -0.33,1.32 -0.66,2.64 -1,4 0,-4.62 0,-9.24 0,-14 z m 368,87 c 2.52631,3.12781 4.42373,6.29577 6,10 -0.33,0.99 -0.66,1.98 -1,3 -3.03869,-1.51935 -3.6441,-3.98005 -5,-7 0,-0.66 0,-1.32 0,-2 -0.66,0 -1.32,0 -2,0 0.66,-1.32 1.32,-2.64 2,-4 z m -109,80 c 0,3.38879 -0.64361,4.39757 -2.4375,7.1875 -0.45246,0.71543 -0.90492,1.43086 -1.37109,2.16797 -0.39317,0.54269 -0.78633,1.08539 -1.19141,1.64453 -0.33,0 -0.66,0 -1,0 -0.49046,-5.3951 -0.49046,-5.3951 1.875,-8.3125 C 769,518 769,518 771,517 Z m -522,61 c 0.33,0 0.66,0 1,0 1.18982,7.41226 0.6796,13.6986 -1,21 -0.33,0 -0.66,0 -1,0 -0.18451,-14.78132 -0.18451,-14.78132 1,-21 z m 419,114 c 0,0.66 0,1.32 0,2 -3.47663,2.14336 -6.21229,2.21278 -10.25,2.125 -1.07766,-0.0181 -2.15531,-0.0361 -3.26563,-0.0547 C 653.66453,696.0471 652.84469,696.0239 652,696 c 2.63482,-1.39975 5.10371,-2.41224 8,-3.125 0.66,-0.16758 1.32,-0.33516 2,-0.50781 C 664,692 664,692 668,692 Z M 563,284 c 7.41017,-0.11459 14.64206,0.0884 22,1 0,0.33 0,0.66 0,1 -2.91621,0.24902 -5.83111,0.47485 -8.75,0.6875 -0.825,0.0728 -1.65,0.14566 -2.5,0.2207 -6.17298,0.42315 -6.17298,0.42315 -9.32813,-1.38867 C 563.95266,285.01809 563.48344,284.51664 563,284 Z m 152,31 c 2.97,0.33 5.94,0.66 9,1 0,0.66 0,1.32 0,2 2.31,0.66 4.62,1.32 7,2 -5.10838,1.70279 -10.12758,0.0396 -15,-2 -0.33,-0.99 -0.66,-1.98 -1,-3 z M 144,584 c 3.61569,1.20523 3.9467,2.07186 5.75,5.3125 0.44859,0.77988 0.89719,1.55977 1.35937,2.36328 1.00674,2.62723 0.86289,3.73349 -0.10937,6.32422 -0.98558,-1.57935 -1.96323,-3.16365 -2.9375,-4.75 -0.54527,-0.88172 -1.09055,-1.76344 -1.65234,-2.67188 C 145.17284,588.316 144.46409,586.51434 144,584 Z m 290,-37 c 0.33,0 0.66,0 1,0 0.19476,2.60381 0.38109,5.20776 0.5625,7.8125 0.0561,0.73799 0.11215,1.47598 0.16992,2.23633 0.22528,3.31905 0.33014,5.7635 -0.73242,8.95117 -0.66,0 -1.32,0 -2,0 -0.10656,-6.4407 0.038,-12.62641 1,-19 z m -196,92 c 2.86867,1.38265 5.56024,2.92149 8.25,4.625 0.70641,0.44602 1.41281,0.89203 2.14062,1.35156 0.5311,0.33774 1.06219,0.67547 1.60938,1.02344 -0.99,0.66 -1.98,1.32 -3,2 -3.0486,-1.0162 -3.86667,-1.77392 -6,-4 -0.66,-0.33 -1.32,-0.66 -2,-1 -0.625,-2.0625 -0.625,-2.0625 -1,-4 z m 174,95 c 0,0.66 0,1.32 0,2 1.32,0.33 2.64,0.66 4,1 -13.63326,-0.96355 -13.63326,-0.96355 -20,-2 0,-0.33 0,-0.66 0,-1 5.68698,-0.91398 10.31302,-0.91398 16,0 z m 61,9 c -8.05358,0.14525 -15.97876,-0.28587 -24,-1 0,-0.33 0,-0.66 0,-1 2.58296,-0.19522 5.16604,-0.38144 7.75,-0.5625 0.72961,-0.0561 1.45922,-0.11215 2.21094,-0.16992 C 464.53324,739.88765 468.11568,740.3834 473,743 Z M 195,378 c 0.66,0.33 1.32,0.66 2,1 -0.78375,0.9075 -1.5675,1.815 -2.375,2.75 -1.92553,2.3019 -3.44706,4.46577 -4.625,7.25 -1.32,0 -2.64,0 -4,0 0,-3 0,-3 1.71484,-4.78906 1.10022,-0.90879 1.10022,-0.90879 2.22266,-1.83594 0.7309,-0.61102 1.4618,-1.22203 2.21484,-1.85156 C 192.76207,380.0207 193.3718,379.51797 194,379 c 0.33,-0.33 0.66,-0.66 1,-1 z m -6,50 c 0.33,0 0.66,0 1,0 0.58305,3.84814 -0.29971,5.76309 -2.5,8.8125 -0.8222,1.07114 -1.65204,2.13664 -2.5,3.1875 -0.99,-0.33 -1.98,-0.66 -3,-1 1.75,-4.875 1.75,-4.875 4,-6 1.01188,-1.65948 2.01265,-3.32581 3,-5 z m 533,134 c -5.35234,3.56822 -11.63027,4.32665 -18,4 0.99,-0.33 1.98,-0.66 3,-1 0,-0.66 0,-1.32 0,-2 5.05002,-1.0359 9.87416,-1.10252 15,-1 z m -424,10 c 0.66,0 1.32,0 2,0 0.29531,6.49678 -0.82706,12.62215 -2,19 -0.33,0 -0.66,0 -1,0 -1.10766,-6.86747 -0.70077,-12.26719 1,-19 z m 72,123 c 5.78097,0.63065 11.34437,1.65155 17,3 0,0.33 0,0.66 0,1 -6.57293,1.60672 -11.64647,0.0336 -18,-2 0.33,-0.66 0.66,-1.32 1,-2 z m 78,-239 c 0.33,0 0.66,0 1,0 1.04819,7.45067 0.91319,13.71091 -1,21 -0.66,-0.33 -1.32,-0.66 -2,-1 0.96355,-13.63326 0.96355,-13.63326 2,-20 z M 373.1875,327.9375 c 0.90105,0.009 1.80211,0.0181 2.73047,0.0273 0.68707,0.0116 1.37414,0.0232 2.08203,0.0352 -0.99,0.33 -1.98,0.66 -3,1 0,0.66 0,1.32 0,2 -8.03571,2.27679 -8.03571,2.27679 -12,1 0.66,-0.33 1.32,-0.66 2,-1 0,-0.66 0,-1.32 0,-2 3.01491,-1.00497 5.04182,-1.10335 8.1875,-1.0625 z M 799,355 c 3.62276,1.32556 6.63505,2.94347 9.8125,5.125 0.7902,0.53883 1.58039,1.07766 2.39453,1.63281 0.59168,0.40992 1.18336,0.81985 1.79297,1.24219 -2,1 -2,1 -5.3125,0.4375 -4.58088,-1.78577 -5.90583,-3.47572 -8.6875,-7.4375 0,-0.33 0,-0.66 0,-1 z M 290,611 c 0.99,0.66 1.98,1.32 3,2 -0.71429,8.57143 -0.71429,8.57143 -4,12 -1.32,-0.66 -2.64,-1.32 -4,-2 1.32,-0.33 2.64,-0.66 4,-1 -0.0206,-1.25812 -0.0412,-2.51625 -0.0625,-3.8125 C 288.8911,615.35949 289.08307,613.75079 290,611 Z M 463,363 c 0.33,0 0.66,0 1,0 0.75613,5.23472 1.20634,9.77254 0,15 -0.33,0 -0.66,0 -1,0 0.0619,1.11375 0.12375,2.2275 0.1875,3.375 -0.0928,1.79437 -0.0928,1.79437 -0.1875,3.625 -0.99,0.66 -1.98,1.32 -3,2 0.54577,-8.10036 1.54147,-16.01349 3,-24 z m 352,3 c 4.06499,1.37184 6.67397,3.22068 9.8125,6.125 1.18529,1.08668 1.18529,1.08668 2.39453,2.19531 0.59168,0.5543 1.18336,1.1086 1.79297,1.67969 -1.98,0.99 -1.98,0.99 -4,2 0,-0.66 0,-1.32 0,-2 -1.62054,-1.38903 -3.29705,-2.71333 -5,-4 -1.70295,-1.28667 -3.37946,-2.61097 -5,-4 0,-0.66 0,-1.32 0,-2 z m -46,283 c 0.66,0.33 1.32,0.66 2,1 -1.26835,3.94598 -3.68935,5.4398 -7.17969,7.31641 C 761.2783,658.27102 759.51232,657.91357 757,657 c 1.45597,-2.91194 3.60838,-3.63866 6.4375,-5.1875 0.98871,-0.55043 1.97742,-1.10086 2.99609,-1.66797 C 767.28051,649.76684 768.12742,649.38914 769,649 Z M 301,354 c -3.36736,2.82858 -6.87452,4.49983 -11,6 -0.99,-0.33 -1.98,-0.66 -3,-1 0.66,-0.33 1.32,-0.66 2,-1 0,-0.99 0,-1.98 0,-3 4.32734,-2.22924 7.284,-1.92471 12,-1 z M 168,469 c 1.29207,3.87622 0.39998,5.53246 -0.875,9.375 -1.27078,3.86567 -2.41905,7.61463 -3.125,11.625 -0.33,0 -0.66,0 -1,0 -1.51973,-6.35522 -0.16635,-10.91709 2,-17 0.66,0 1.32,0 2,0 0.33,-1.32 0.66,-2.64 1,-4 z m 658,133 c 0,3.19398 -0.51014,4.2686 -2,7 -0.43313,1.05187 -0.43313,1.05187 -0.875,2.125 -1.40908,2.34846 -2.54506,3.01502 -5.125,3.875 -0.99,-0.33 -1.98,-0.66 -3,-1 1.61595,-2.0412 3.28564,-4.04073 5,-6 0.66,0 1.32,0 2,0 0.28875,-0.61875 0.5775,-1.2375 0.875,-1.875 C 824,604 824,604 826,602 Z m -616,14 c 1.98,0.99 1.98,0.99 4,2 0,0.66 0,1.32 0,2 0.53625,0.22687 1.0725,0.45375 1.625,0.6875 3.16001,1.74632 5.6427,3.95278 8.375,6.3125 -1.67188,0.76562 -1.67188,0.76562 -4,1 -2.57813,-1.76563 -2.57813,-1.76563 -5.25,-4.25 -0.89203,-0.80953 -1.78406,-1.61906 -2.70313,-2.45313 C 210,619 210,619 210,616 Z m 677,-53 c 0.66,0.33 1.32,0.66 2,1 -0.64465,4.33304 -2.18925,7.86672 -4.0625,11.8125 -0.54785,1.16144 -1.0957,2.32289 -1.66016,3.51953 -0.42152,0.88043 -0.84304,1.76086 -1.27734,2.66797 -0.33,0 -0.66,0 -1,0 -0.37187,-5.09771 0.76636,-8.31466 3,-12.875 0.83531,-1.72863 0.83531,-1.72863 1.6875,-3.49219 C 886.12063,564.76398 886.55375,563.89516 887,563 Z M 697,309 c 5.05532,0.77774 10.01716,1.85948 15,3 0,0.66 0,1.32 0,2 0.99,0.33 1.98,0.66 3,1 -4.54506,1.37729 -7.55501,0.45473 -12,-1 -1.3313,-0.34136 -2.66358,-0.67926 -4,-1 0,-0.99 0,-1.98 0,-3 -0.66,-0.33 -1.32,-0.66 -2,-1 z M 372,509 c 1.32,0.33 2.64,0.66 4,1 -2.07411,4.03905 -3.8872,6.04152 -8,8 -2.8125,0.6875 -2.8125,0.6875 -5,1 0.63937,-0.59812 1.27875,-1.19625 1.9375,-1.8125 2.2656,-2.0956 2.2656,-2.0956 3.0625,-5.1875 0.99,-0.33 1.98,-0.66 3,-1 0.33,-0.66 0.66,-1.32 1,-2 z M 293,323 c -2.76223,2.76223 -5.20707,2.57856 -9,3 0,0.66 0,1.32 0,2 -1.23884,0.72767 -2.49168,1.43155 -3.75,2.125 -1.04414,0.59168 -1.04414,0.59168 -2.10938,1.19531 C 276,332 276,332 273.73437,331.11719 272.87586,330.56418 272.87586,330.56418 272,330 c 0.66,0 1.32,0 2,0 0.33,-0.66 0.66,-1.32 1,-2 2.63674,-1.15339 5.24071,-2.19689 7.9375,-3.1875 0.74186,-0.28553 1.48371,-0.57105 2.24805,-0.86523 C 290.74867,321.87433 290.74867,321.87433 293,323 Z m 133,177 c 0.99,0.66 1.98,1.32 3,2 -0.65419,5.06998 -2.85464,9.41991 -5,14 -0.12375,-0.63937 -0.2475,-1.27875 -0.375,-1.9375 -0.20625,-0.68062 -0.4125,-1.36125 -0.625,-2.0625 -0.66,-0.33 -1.32,-0.66 -2,-1 0.63937,-0.88687 1.27875,-1.77375 1.9375,-2.6875 1.8708,-3.00461 2.65674,-4.86354 3.0625,-8.3125 z m -173,54 c 0.33,0 0.66,0 1,0 0.18451,15.74487 0.18451,15.74487 -1,23 -0.99,0.33 -1.98,0.66 -3,1 0.54577,-8.10036 1.54147,-16.01349 3,-24 z m 187,184 c 0,-0.33 0,-0.66 0,-1 1.65,0 3.3,0 5,0 0,0.66 0,1.32 0,2 1.32,0.66 2.64,1.32 4,2 -8.79705,0.38064 -17.31163,-0.79268 -26,-2 0,-0.33 0,-0.66 0,-1 11.52164,-1.33257 11.52164,-1.33257 17,0 z M 624,322 c 0,0.66 0,1.32 0,2 3.34253,0.0743 5.80359,0.0655 9,-1 0,0.99 0,1.98 0,3 0.66,0.33 1.32,0.66 2,1 -9.1169,-0.72356 -18.01638,-2.34293 -27,-4 0,-0.33 0,-0.66 0,-1 5.68698,-0.91398 10.31302,-0.91398 16,0 z M 383,468 c 0.33,0 0.66,0 1,0 0.0494,4.09339 0.0857,8.18666 0.10986,12.28027 0.0101,1.39294 0.0237,2.78585 0.041,4.17871 0.0242,2.00056 0.0345,4.00128 0.0444,6.00196 0.0105,1.20447 0.0209,2.40893 0.0317,3.6499 C 384,497 384,497 382,499 c -0.99,0 -1.98,0 -3,0 0.20496,-0.89719 0.40992,-1.79438 0.62109,-2.71875 C 381.66153,486.8308 382.63208,477.65469 383,468 Z m 100,65 c 0.33,0 0.66,0 1,0 -0.33,6.6 -0.66,13.2 -1,20 -0.66,0 -1.32,0 -2,0 0.0412,1.11375 0.0825,2.2275 0.125,3.375 C 481,560 481,560 479,562 c 0.14244,-2.66689 0.28887,-5.33346 0.4375,-8 0.059,-1.11568 0.059,-1.11568 0.11914,-2.25391 0.27998,-4.95343 0.77847,-9.82922 1.44336,-14.74609 0.66,0 1.32,0 2,0 0,-1.32 0,-2.64 0,-4 z M 312,677 c 7.21931,1.44386 14.05111,3.57788 21,6 -2.38696,1.51798 -3.52858,2.07779 -6.36719,1.60937 -0.82758,-0.28359 -1.65515,-0.56718 -2.50781,-0.85937 -0.8727,-0.29391 -1.74539,-0.58781 -2.64453,-0.89063 C 320.66191,682.57578 319.84336,682.29219 319,682 c -1.17563,-0.33 -2.35125,-0.66 -3.5625,-1 -0.80438,-0.33 -1.60875,-0.66 -2.4375,-1 -0.33,-0.99 -0.66,-1.98 -1,-3 z m 430,24 c -2.55985,1.15208 -5.12259,2.29679 -7.6875,3.4375 -0.72123,0.32549 -1.44246,0.65098 -2.18555,0.98633 -3.69242,1.63545 -7.09161,3.01106 -11.12695,3.57617 1,-3 1,-3 2.62647,-4.01489 2.24428,-0.94708 4.48894,-1.8875 6.74853,-2.79761 1.17176,-0.50563 1.17176,-0.50563 2.36719,-1.02148 0.75281,-0.30873 1.50562,-0.61747 2.28125,-0.93555 0.69013,-0.28464 1.38026,-0.56928 2.09131,-0.86255 C 739,699 739,699 742,701 Z M 536,538 c 0.33,0 0.66,0 1,0 0,3.63 0,7.26 0,11 0.33,0 0.66,0 1,0 0,2.64 0,5.28 0,8 -0.66,0 -1.32,0 -2,0 0.33,0.99 0.66,1.98 1,3 -0.9375,2.1875 -0.9375,2.1875 -2,4 -3.61953,-7.23906 -0.3445,-18.44917 1,-26 z m 156,181 c -3.29787,2.19858 -6.13806,3.08315 -9.9375,4.1875 -1.2259,0.3648 -2.4518,0.72961 -3.71484,1.10547 C 675.29101,724.93854 673.8457,725.11974 671,724 c 0.66,0 1.32,0 2,0 -0.33,-0.99 -0.66,-1.98 -1,-3 6.74153,-1.25842 13.13484,-2.26404 20,-2 z m 89,-38 c -2.20453,1.29856 -4.41323,2.58888 -6.625,3.875 -0.61746,0.3648 -1.23492,0.72961 -1.87109,1.10547 -3.74498,2.16814 -7.32218,3.79718 -11.50391,5.01953 0.33,-0.99 0.66,-1.98 1,-3 2,-0.66667 4,-1.33333 6,-2 0.33,-0.99 0.66,-1.98 1,-3 2.9375,-1.125 2.9375,-1.125 6,-2 2.49093,-1.24546 3.41081,-0.77676 6,0 z M 387,295 c -3.08889,2.05926 -3.70936,2.23904 -7.1875,2.125 -1.88719,-0.0619 -1.88719,-0.0619 -3.8125,-0.125 -0.33,0.66 -0.66,1.32 -1,2 -0.99,0.33 -1.98,0.66 -3,1 -0.99,0.66 -1.98,1.32 -3,2 -4.17301,0.23183 -7.9402,-0.0158 -12,-1 0,-0.33 0,-0.66 0,-1 4.24651,-1.03574 8.49766,-2.051 12.75,-3.0625 1.80984,-0.44183 1.80984,-0.44183 3.65625,-0.89258 1.16016,-0.27392 2.32031,-0.54785 3.51562,-0.83008 1.60247,-0.3849 1.60247,-0.3849 3.23731,-0.77758 2.72394,-0.41927 4.2766,-0.3488 6.84082,0.56274 z M 156,421 c 1.32,0.66 2.64,1.32 4,2 -0.38672,0.50789 -0.77344,1.01578 -1.17188,1.53906 -3.08239,4.07426 -6.04383,8.17742 -8.82812,12.46094 -0.66,-0.99 -1.32,-1.98 -2,-3 0.75,-2.375 0.75,-2.375 2,-5 0.28875,-0.86625 0.5775,-1.7325 0.875,-2.625 1.28648,-2.71591 2.61476,-3.78518 5.125,-5.375 z m 515,304 c -4.58503,2.48057 -9.39396,3.44233 -14.4375,4.625 -1.41249,0.34418 -1.41249,0.34418 -2.85352,0.69531 -0.9133,0.21656 -1.8266,0.43313 -2.76757,0.65625 -0.82815,0.19675 -1.65629,0.39349 -2.50953,0.59619 -2.52582,0.44375 -4.87273,0.50196 -7.43188,0.42725 2.64739,-1.46063 3.89448,-2 7,-2 0,-0.66 0,-1.32 0,-2 2.70531,-0.70193 5.41314,-1.38676 8.125,-2.0625 0.76055,-0.19916 1.52109,-0.39832 2.30469,-0.60352 C 662.96728,724.21914 666.36312,723.82226 671,725 Z M 587,533 c 0.33,0 0.66,0 1,0 -0.57621,8.41567 -1.61772,16.67948 -3,25 -0.33,0 -0.66,0 -1,0 -0.33,-1.98 -0.66,-3.96 -1,-6 -0.33,0 -0.66,0 -1,0 0.96355,-11.52164 0.96355,-11.52164 2,-17 0.99,1.485 0.99,1.485 2,3 0.33,-1.65 0.66,-3.3 1,-5 z m -43,-85 c 1.8125,0.0625 1.8125,0.0625 4,1 3.97798,6.17273 2.96025,11.95428 2,19 -0.33,0 -0.66,0 -1,0 -0.66,2.97 -1.32,5.94 -2,9 -0.33,0 -0.66,0 -1,0 0.0722,-0.73863 0.14437,-1.47727 0.21875,-2.23828 C 548.10403,460.86336 548.10403,460.86336 544,448 Z m -50,6 c 0.33,0 0.66,0 1,0 -0.74672,11.69204 -1.85352,23.34157 -3,35 -0.66,0 -1.32,0 -2,0 0,1.65 0,3.3 0,5 -0.33,0 -0.66,0 -1,0 -0.46829,-8.7284 0.98418,-17.06928 2.5,-25.625 0.24165,-1.39961 0.48254,-2.79935 0.72266,-4.19922 C 492.8064,460.7823 493.40033,457.3907 494,454 Z M 282,402 c 3.95097,-0.0494 7.90182,-0.0857 11.85303,-0.10986 2.00608,-0.015 4.01208,-0.0404 6.01806,-0.0659 1.25684,-0.006 2.51368,-0.0129 3.8086,-0.0195 1.16257,-0.0105 2.32514,-0.0209 3.52295,-0.0317 C 310,402 310,402 312,404 c -0.79173,0.0251 -1.58345,0.0501 -2.39917,0.0759 -3.59626,0.11623 -7.19228,0.23883 -10.78833,0.36157 -1.86882,0.059 -1.86882,0.059 -3.77539,0.11914 -1.20205,0.0419 -2.4041,0.0838 -3.64258,0.12695 -1.10497,0.0367 -2.20994,0.0733 -3.34839,0.11109 -2.77207,0.18685 -5.34157,0.58694 -8.04614,1.20532 0.66,-1.32 1.32,-2.64 2,-4 z m 328,107 c 0.33,0 0.66,0 1,0 0.19776,4.35081 -0.16221,8.27254 -0.9375,12.5625 -1.21231,6.78379 -1.67609,13.56355 -2.0625,20.4375 -0.66,0 -1.32,0 -2,0 0.33,3.3 0.66,6.6 1,10 -0.99,-0.33 -1.98,-0.66 -3,-1 0.64109,-9.15412 2.06126,-18.14559 3.5625,-27.1875 0.23668,-1.4433 0.47301,-2.88666 0.70898,-4.33008 C 608.84359,515.9876 609.42045,512.49359 610,509 Z M 161,611 c 2.3125,0.1875 2.3125,0.1875 5,1 1.625,2.4375 1.625,2.4375 3,5 0.99,0.66 1.98,1.32 3,2 1.09766,1.69141 1.09766,1.69141 2.0625,3.5625 1.53227,3.46805 1.53227,3.46805 3.9375,4.4375 -0.33,1.32 -0.66,2.64 -1,4 -1.91878,-2.06057 -3.83506,-4.12337 -5.75,-6.1875 -0.53883,-0.57814 -1.07766,-1.15629 -1.63281,-1.75195 C 161,613.76029 161,613.76029 161,611 Z M 368,441 c 1.02197,0.97754 2.0198,1.98059 3,3 0.825,0.45375 1.65,0.9075 2.5,1.375 2.92688,1.90247 4.10207,3.44082 5.5,6.625 -0.42969,2.16016 -0.42969,2.16016 -1,4 -0.48469,-0.60328 -0.96938,-1.20656 -1.46875,-1.82813 -3.87652,-4.622 -7.16711,-8.06563 -12.76953,-10.41796 C 362,443 362,443 359,441 c 3.34525,-0.83631 5.75131,-1.29948 9,0 z m 91,298 c 10.37345,-0.16495 20.65109,0.34956 31,1 0,0.33 0,0.66 0,1 -8.415,0.495 -8.415,0.495 -17,1 0,0.33 0,0.66 0,1 -8.05358,0.14526 -15.97876,-0.28587 -24,-1 0,-0.33 0,-0.66 0,-1 3.3,-0.33 6.6,-0.66 10,-1 0,-0.33 0,-0.66 0,-1 z M 288,624 c -2.37677,2.21287 -3.66563,2.96995 -6.94507,3.26465 -1.12027,-0.0512 -2.24055,-0.10248 -3.39477,-0.15528 -1.84175,-0.0754 -1.84175,-0.0754 -3.72071,-0.15234 -1.27939,-0.0683 -2.55879,-0.13664 -3.87695,-0.20703 -1.91329,-0.0793 -1.91329,-0.0793 -3.86523,-0.16016 C 255.9991,626.12994 255.9991,626.12994 251,625 c 0,-0.33 0,-0.66 0,-1 4.94772,-0.16746 9.8956,-0.32803 14.84375,-0.48218 1.68398,-0.0534 3.3679,-0.10876 5.05176,-0.16601 2.41751,-0.0819 4.83515,-0.15696 7.25293,-0.23072 0.75526,-0.027 1.51052,-0.0541 2.28866,-0.0819 5.33516,-0.15304 5.33516,-0.15304 7.5629,0.96083 z m 428,85 c 0.66,0.66 1.32,1.32 2,2 -3.20544,1.15405 -6.41481,2.29674 -9.625,3.4375 -0.90363,0.32549 -1.80727,0.65098 -2.73828,0.98633 C 701.10175,717.02927 696.80584,718.4332 692,719 c 0.66,-0.33 1.32,-0.66 2,-1 0,-0.66 0,-1.32 0,-2 3.63,-0.99 7.26,-1.98 11,-3 0,-0.66 0,-1.32 0,-2 1.26608,-0.53229 2.5381,-1.05045 3.8125,-1.5625 0.7077,-0.29004 1.41539,-0.58008 2.14453,-0.87891 C 713,708 713,708 716,709 Z M 646,598 c -0.45407,7.95399 -1.87111,15.32798 -4,23 -2,-2 -2,-2 -2.26563,-4.49609 0.005,-0.97067 0.0103,-1.94133 0.0156,-2.94141 -0.005,-0.96809 -0.0103,-1.93617 -0.0156,-2.93359 C 640,608 640,608 642,605 c 0.16699,-3.12522 0.16699,-3.12522 0,-6 3,-1 3,-1 4,-1 z M 894,479 c 0.33,0.99 0.66,1.98 1,3 0.66,0 1.32,0 2,0 1.78404,10.24362 2.25425,20.01542 2.125,30.375 -0.0101,1.42968 -0.0192,2.85937 -0.0273,4.28906 -0.0217,3.44546 -0.056,6.89065 -0.0977,10.33594 -0.33,0 -0.66,0 -1,0 0,-8.58 0,-17.16 0,-26 -0.66,0 -1.32,0 -2,0 -0.33696,-2.72876 -0.66968,-5.45793 -1,-8.1875 -0.0954,-0.76893 -0.19078,-1.53785 -0.28906,-2.33008 C 894.24807,486.63071 893.87533,482.88829 894,479 Z M 598,623 c 13.2,0 26.4,0 40,0 -0.33,0.99 -0.66,1.98 -1,3 -4.12568,0.16909 -8.25161,0.32948 -12.37793,0.48218 -1.40048,0.053 -2.80088,0.1083 -4.20117,0.16601 C 606.10164,627.23547 606.10164,627.23547 599,626 c -0.33,-0.99 -0.66,-1.98 -1,-3 z M 780,450 c 6.41581,9.62371 5.19455,27.01137 3,38.0625 -0.31553,1.31689 -0.64071,2.63187 -1,3.9375 -2.97656,-2.66406 -2.97656,-2.66406 -3.1875,-5.6875 0.0619,-0.76313 0.12375,-1.52625 0.1875,-2.3125 0.66,0 1.32,0 2,0 0,-9.57 0,-19.14 0,-29 -0.99,0.33 -1.98,0.66 -3,1 0.875,-4.875 0.875,-4.875 2,-6 z M 195,378 c 0.66,0.33 1.32,0.66 2,1 -0.78375,0.9075 -1.5675,1.815 -2.375,2.75 -1.57809,1.86381 -2.61649,3.22957 -3.5625,5.5 C 190,389 190,389 187.3125,389.8125 181.75047,391.80644 178.22472,396.16291 175,401 c 0,0.99 0,1.98 0,3 -4.22857,4 -4.22857,4 -8,4 2.20672,-4.92542 5.83083,-8.36822 9.5,-12.25 0.68965,-0.74508 1.3793,-1.49016 2.08984,-2.25781 0.66129,-0.70383 1.32258,-1.40766 2.00391,-2.13282 0.60521,-0.64485 1.21043,-1.2897 1.83398,-1.9541 C 184,388 184,388 186,388 c 0,-0.66 0,-1.32 0,-2 1.71484,-1.69141 1.71484,-1.69141 3.9375,-3.5625 0.7309,-0.62004 1.4618,-1.24008 2.21484,-1.87891 0.60973,-0.51433 1.21946,-1.02867 1.84766,-1.55859 0.33,-0.33 0.66,-0.66 1,-1 z m 402,52 c 2,3 2,3 2,6 0.66,0 1.32,0 2,0 0.99078,4.73948 0.98806,9.1406 0.625,13.9375 -0.0657,1.0161 -0.0657,1.0161 -0.13281,2.05273 -0.30227,4.37874 -0.82543,8.67585 -1.49219,13.00977 -0.66,0 -1.32,0 -2,0 -0.33,0.99 -0.66,1.98 -1,3 0.0722,-0.76441 0.14437,-1.52883 0.21875,-2.31641 C 598.25187,453.7597 598.5666,441.8894 597,430 Z m -59,12 c -0.33,0.66 -0.66,1.32 -1,2 -19.305,-0.495 -19.305,-0.495 -39,-1 0.33,-0.66 0.66,-1.32 1,-2 12.9918,-2.13509 26.10707,-1.13611 39,1 z M 275,416 c 0.33,0 0.66,0 1,0 1.49436,8.16388 0.47346,15.75671 -0.896,23.83423 -0.35699,2.12101 -0.68667,4.24511 -1.01416,6.37085 -0.22105,1.35768 -0.44365,2.71511 -0.66797,4.07226 -0.20012,1.21938 -0.40025,2.43875 -0.60644,3.69507 -0.80889,3.00332 -1.38729,4.16952 -3.81543,6.02759 0.56133,-9.90477 1.92079,-19.54565 3.5625,-29.3125 0.23684,-1.43416 0.47317,-2.86841 0.70898,-4.30273 C 273.84187,422.9222 274.41899,419.4608 275,416 Z m 343,320 c 0,0.33 0,0.66 0,1 -12.69542,2.22065 -25.07057,4.21196 -38,4 0,-0.33 0,-0.66 0,-1 -2.64,-0.33 -5.28,-0.66 -8,-1 0,-0.33 0,-0.66 0,-1 5.2992,-0.65654 10.47004,-1.04421 15.8125,-0.9375 4.39211,0.0563 8.42639,-0.35659 12.75,-1.125 6.01527,-1.03887 11.41933,-0.82997 17.4375,0.0625 z m 8,-308 c 1.37432,3.81757 0.67975,7.07255 0,11 -0.33,0 -0.66,0 -1,0 -0.125,-7.625 -0.125,-7.625 1,-11 z m -4,7 c 2.98633,3.61768 2.98633,3.61768 3.10937,7.05859 -0.11859,1.11504 -0.23718,2.23008 -0.35937,3.37891 -0.10828,1.11246 -0.21656,2.22492 -0.32813,3.37109 -0.36572,2.76665 -0.83078,5.46528 -1.42187,8.19141 -0.66,0 -1.32,0 -2,0 -0.0374,0.76184 -0.0748,1.52367 -0.11328,2.30859 -0.37946,5.95981 -1.10018,11.17722 -3.1875,16.77735 -0.8286,2.26823 -1.3151,4.53254 -1.69922,6.91406 -0.33,0 -0.66,0 -1,0 0.11491,-2.68827 0.24163,-5.37514 0.375,-8.0625 0.0309,-0.75217 0.0619,-1.50434 0.0937,-2.2793 0.252,-4.85092 1.15448,-8.97719 2.53125,-13.6582 0.79535,-4.13172 1.45932,-8.28317 2.125,-12.4375 0.18176,-1.11311 0.36352,-2.22621 0.55078,-3.37305 C 621.12089,440.46021 621.56219,437.73042 622,435 Z M 496,280 c 1.02271,0.0664 2.04542,0.13277 3.09912,0.20117 11.24788,0.70839 22.48367,1.08638 33.74951,1.35108 10.07552,0.24137 20.10015,0.69055 30.15137,1.44775 0,0.33 0,0.66 0,1 -25.41,0 -50.82,0 -77,0 0,0.33 0,0.66 0,1 -9.04029,0.17238 -17.98866,-0.36683 -27,-1 0,-0.33 0,-0.66 0,-1 12.34136,-1.0765 24.619,-1.11029 37,-1 0,-0.66 0,-1.32 0,-2 z m 8.13281,461.90234 c 1.84659,0.002 3.69318,0.003 5.53976,0.004 4.82992,0.004 9.65981,0.0136 14.48972,0.0247 4.94069,0.0103 9.88138,0.0148 14.82208,0.0198 9.67189,0.0107 19.34376,0.0277 29.01563,0.0488 0,0.33 0,0.66 0,1 -1.15412,0.0553 -2.30823,0.11069 -3.49732,0.16772 -4.32954,0.20826 -8.65893,0.41961 -12.98828,0.63184 -1.86487,0.091 -3.72978,0.18118 -5.59473,0.2705 -2.69859,0.1294 -5.39705,0.26133 -8.09545,0.39478 -1.31353,0.0643 -1.31353,0.0643 -2.6536,0.12997 -4.42423,0.22686 -8.80943,0.54105 -13.21359,1.03409 -4.64972,0.46502 -9.04077,0.13179 -13.68164,-0.33545 -6.3261,-0.56678 -12.67871,-0.6687 -19.02539,-0.85595 -1.39064,-0.0433 -2.78126,-0.087 -4.17188,-0.13086 C 481.71882,744.20166 478.35946,744.0995 475,744 c 0,-0.33 0,-0.66 0,-1 9.70644,-1.26018 19.36457,-1.12682 29.13281,-1.09766 z M 489.9458,343.57446 c 2.18194,-0.012 4.36113,-0.0613 6.54248,-0.11157 1.40233,-0.009 2.80468,-0.0167 4.20703,-0.0215 1.25829,-0.0134 2.51657,-0.0269 3.81299,-0.0408 4.60761,0.79092 6.20515,2.33283 9.4917,5.59937 2.98783,5.97566 0.6003,14.56329 -0.53125,20.84765 -0.15537,0.89731 -0.31075,1.79461 -0.47083,2.7191 -0.49224,2.83321 -0.99489,5.66444 -1.49792,8.49575 -0.33793,1.93412 -0.67518,3.86836 -1.01172,5.80273 -0.8215,4.71301 -1.65233,9.4243 -2.48828,14.13477 1.28741,-0.069 1.28741,-0.069 2.60083,-0.13941 15.1838,-0.7649 30.19121,-1.34258 45.33667,0.32691 1.07419,0.11319 2.14838,0.22639 3.25513,0.34301 13.03321,1.63702 25.96549,6.97203 34.34643,17.41871 11.99633,16.83976 8.058,36.93266 4.91406,55.96484 -0.25628,1.58668 -0.5119,3.17346 -0.7669,4.76035 -0.66856,4.1487 -1.34636,8.29584 -2.02619,12.44271 -0.67385,4.12146 -1.33838,8.24442 -2.00378,12.36725 -0.78297,4.84997 -1.56931,9.69929 -2.37097,14.54621 -1.13992,6.89574 -2.27212,13.79007 -3.29327,20.70457 -0.41441,2.79717 -0.84339,5.592 -1.27397,8.38672 -0.28744,1.90619 -0.55346,3.81557 -0.81881,5.72496 -1.45136,9.32973 -1.45136,9.32973 -4.35455,12.41611 -3.23502,2.2083 -5.32814,2.4336 -9.23218,2.54956 -1.31613,0.0438 -2.63227,0.0876 -3.98828,0.13281 -1.44139,0.0193 -2.8828,0.0375 -4.32422,0.0547 -1.556,0.0388 -3.11199,0.0779 -4.66797,0.11718 -19.67955,0.37454 -19.67955,0.37454 -24.39453,-4.05468 -2.99432,-9.78144 -0.0982,-20.94786 1.47005,-30.81617 0.44478,-2.80033 0.87895,-5.60214 1.31059,-8.40454 1.07351,-6.95561 2.1648,-13.9084 3.25555,-20.86132 0.92351,-5.89136 1.84016,-11.7837 2.74794,-17.67749 0.42538,-2.74338 0.86061,-5.48506 1.29631,-8.22681 2.69058,-14.08575 2.69058,-14.08575 0.98206,-28.01367 -5.60905,-5.78434 -12.63481,-6.91914 -20.45679,-7.17603 -1.17828,0.005 -2.35657,0.0105 -3.57055,0.0159 -1.92876,0.005 -1.92876,0.005 -3.89649,0.01 -1.33789,0.008 -2.67578,0.0168 -4.01367,0.0254 -1.36523,0.005 -2.73047,0.01 -4.0957,0.0137 -3.32231,0.0117 -6.64453,0.0282 -9.9668,0.0488 -1.74301,3.90529 -2.53981,7.55725 -3.17334,11.78027 -0.10116,0.66283 -0.20231,1.32566 -0.30653,2.00858 -0.33271,2.18935 -0.65686,4.37989 -0.98107,6.57052 -0.23362,1.54731 -0.46781,3.09453 -0.70254,4.64166 -0.61857,4.0864 -1.23007,8.17383 -1.83988,12.26154 -0.96416,6.45322 -1.94027,12.90465 -2.91376,19.35646 -0.3551,2.35725 -0.7086,4.71473 -1.06182,7.07225 -1.05026,6.99552 -2.11932,13.9862 -3.26422,20.96692 -0.1885,1.14986 -0.377,2.29973 -0.5712,3.48444 -0.34469,2.084 -0.69418,4.16721 -1.04975,6.24939 -0.82063,4.94759 -1.31805,9.59225 -1.13589,14.60797 -0.66,0 -1.32,0 -2,0 0.0825,1.01062 0.165,2.02125 0.25,3.0625 -0.31044,4.88935 -1.52297,6.92716 -4.25,10.9375 -10.0201,5.01005 -29.35076,2.71762 -40,1 -1.35254,-0.62679 -2.69198,-1.28495 -4,-2 -0.12863,-7.13153 0.16628,-14.14374 0.78125,-21.25 0.2584,-2.78865 0.2584,-2.78865 0.21875,-5.75 0.33,0.33 0.66,0.66 1,1 0.12226,-0.77926 0.24453,-1.55852 0.3705,-2.36139 1.56329,-9.96298 3.12734,-19.92585 4.692,-29.88861 0.12583,-0.80126 0.25167,-1.60251 0.38132,-2.42805 3.19677,-20.35397 6.40002,-40.70681 9.64987,-61.05239 1.67476,-10.48545 3.33227,-20.97339 4.96881,-31.46488 0.17691,-1.13293 0.35382,-2.26586 0.53609,-3.43312 0.8566,-5.48634 1.71132,-10.97297 2.5623,-16.46019 0.92889,-5.9733 1.87978,-11.94289 2.83911,-17.91137 0.25067,-1.57827 0.25067,-1.57827 0.50641,-3.18842 0.50406,-3.15129 1.02225,-6.29996 1.54437,-9.4483 0.15092,-0.95349 0.30183,-1.90698 0.45732,-2.88936 0.83463,-4.93361 1.72507,-9.19881 4.4919,-13.47392 6.8361,-2.89765 14.61447,-2.40677 21.9458,-2.42582 z m 155.71899,56.26441 c 0.8737,-0.005 1.7474,-0.01 2.64758,-0.015 2.88937,-0.0146 5.77869,-0.0214 8.66809,-0.0269 2.01297,-0.006 4.02593,-0.0115 6.0389,-0.0173 4.22247,-0.0105 8.44492,-0.0163 12.6674,-0.0198 5.39562,-0.005 10.79098,-0.0295 16.18652,-0.058 4.16001,-0.0187 8.31996,-0.0238 12.48001,-0.0254 1.9882,-0.003 3.97641,-0.011 5.96457,-0.0242 2.79031,-0.0172 5.58002,-0.0152 8.37037,-0.009 1.21841,-0.0138 1.21841,-0.0138 2.46144,-0.0279 5.76879,0.0416 10.48373,1.33373 15.85033,3.38437 1.65128,0.54721 1.65128,0.54721 3.33593,1.10547 16.07103,5.72195 26.5835,16.11241 34.66407,30.89453 0.36867,0.63293 0.73734,1.26586 1.11718,1.91797 10.19713,18.53664 9.9393,41.16921 4.47705,61.03516 -6.99141,24.08217 -22.75758,46.59881 -44.73681,59.05371 -12.38693,6.62329 -25.69141,9.78849 -39.67383,10.56348 -1.09223,0.0621 -1.09223,0.0621 -2.20653,0.12547 -8.51202,0.44171 -17.01883,0.4141 -25.53956,0.36671 -1.60873,-0.005 -3.21745,-0.01 -4.82618,-0.0137 C 659.74084,568.038 655.87044,568.0208 652,568 c -0.10522,0.71293 -0.21044,1.42587 -0.31885,2.1604 -1.39452,9.2671 -2.95032,18.50174 -4.60303,27.72608 -0.30413,1.71222 -0.60256,3.42547 -0.89551,5.13965 -0.43015,2.51342 -0.87864,5.02297 -1.33105,7.53247 -0.1262,0.75945 -0.2524,1.5189 -0.38242,2.30137 -0.89865,4.83979 -2.3469,8.20099 -5.46914,12.14003 -4.24813,2.12406 -9.73903,1.45062 -14.41895,1.61255 -2.04592,0.0737 -4.09057,0.16473 -6.13574,0.25659 -17.76013,0.63679 -17.76013,0.63679 -24.57031,-3.99414 -0.92813,-0.92812 -0.92813,-0.92812 -1.875,-1.875 0.65999,0 1.32,0 2,0 -0.0147,-0.61331 -0.0294,-1.22663 -0.0445,-1.85853 -0.0808,-5.9682 0.36345,-11.61254 1.31037,-17.49864 0.13506,-0.87849 0.27012,-1.75698 0.40927,-2.66208 0.44609,-2.88929 0.90293,-5.77677 1.36001,-8.66434 0.32016,-2.05736 0.63968,-4.11483 0.95861,-6.17238 0.84375,-5.431 1.69682,-10.86051 2.55165,-16.28978 0.67555,-4.3005 1.34455,-8.602 2.01313,-12.90358 2.77491,-17.85121 5.56709,-35.69929 8.49956,-53.52537 0.16462,-1.00231 0.32924,-2.00462 0.49885,-3.0373 0.77998,-4.74497 1.5647,-9.48907 2.35786,-14.23185 0.27777,-1.67972 0.55544,-3.35945 0.83299,-5.0392 0.1279,-0.7541 0.25579,-1.50819 0.38757,-2.28514 0.60106,-3.66029 0.90372,-7.12866 0.86463,-10.83181 0.46682,-1.64498 0.93745,-3.28912 1.43848,-4.92401 1.17836,-4.35647 1.7448,-8.84814 2.43652,-13.30255 0.34889,-2.18751 0.69785,-4.37501 1.04687,-6.5625 0.54154,-3.42745 1.08115,-6.85519 1.61914,-10.2832 0.5231,-3.32307 1.05322,-6.64495 1.58399,-9.9668 0.15839,-1.02405 0.31678,-2.0481 0.47998,-3.10318 0.15356,-0.95805 0.30712,-1.91609 0.46533,-2.90317 0.13165,-0.83826 0.26329,-1.67652 0.39893,-2.54019 1.19925,-5.45534 2.82855,-8.27959 7.53076,-11.4144 4.16461,-1.30147 8.34156,-1.15525 12.66479,-1.16113 z M 675,441 c -1.2884,2.70148 -1.2884,2.70148 -1.92188,6.1875 -0.15338,0.68433 -0.30676,1.36866 -0.46478,2.07373 -0.56502,2.57446 -1.08964,5.15559 -1.61334,7.73877 -0.22712,1.09168 -0.45424,2.18335 -0.68824,3.30811 -1.62829,7.83132 -3.19882,15.67274 -4.74048,23.52148 -0.68684,3.49568 -1.38446,6.98911 -2.08472,10.48212 -0.544,2.72203 -1.08103,5.4454 -1.61613,8.16919 -0.37656,1.90848 -0.75992,3.81562 -1.14344,5.72272 C 659.55173,514.24699 658.69668,519.84205 659,526 c 3.87365,0.0504 7.74718,0.0862 11.62109,0.10987 1.94668,0.0147 3.89327,0.0401 5.83984,0.0659 14.27764,0.0729 29.60075,-0.63278 41.28907,-9.86328 2.48245,-2.01366 2.48245,-2.01366 2.25,-4.3125 0.55687,-0.18562 1.11374,-0.37125 1.6875,-0.5625 7.29611,-4.53542 9.85493,-13.85491 11.91015,-21.72656 1.91561,-12.90712 1.33971,-26.29477 -5.85156,-37.41797 C 722.10968,444.89123 714.07304,441.4314 705,439.99999 c -15.42697,-2.16072 -15.42697,-2.16072 -30,1 z M 313.12891,399.83203 c 1.55924,-0.003 3.11848,-0.007 4.67772,-0.0101 3.25856,-0.006 6.51709,-0.008 9.77565,-0.007 4.12564,10e-5 8.25111,-0.0135 12.37671,-0.0308 3.22013,-0.0113 6.44023,-0.0131 9.66038,-0.0126 1.51826,-10e-4 3.03653,-0.005 4.55477,-0.0133 10.75202,-0.0504 21.17655,0.76601 31.82586,2.24203 1.8924,0.245 1.8924,0.245 3.82302,0.49495 10.40449,1.65402 22.20001,10.57114 28.86448,18.50505 2.94035,4.08815 5.27512,8.46216 7.5625,12.9375 0.3296,0.64388 0.6592,1.28777 0.99878,1.95117 9.90397,20.24878 9.46086,44.16699 3.06372,65.42383 C 424.59063,516.52748 416.25493,531.19605 405,543 c -0.66,0 -1.32,0 -2,0 0,0.66 0,1.32 0,2 -25.85992,24.19589 -59.13642,23.61595 -92.52612,22.87598 -2.15813,-0.0309 -4.31729,0.0367 -6.47388,0.12402 -3.03292,3.03293 -3.09345,6.84844 -3.8125,10.9375 -0.16814,0.91209 -0.33628,1.82418 -0.50952,2.76391 -0.78591,4.27592 -1.54724,8.55597 -2.30102,12.83765 -0.42851,2.43297 -0.8604,4.86535 -1.29566,7.29712 -0.42276,2.36486 -0.83725,4.73122 -1.24267,7.09912 C 292.85509,620.01841 292.85509,620.01841 290,624 c -4.50954,3.08339 -8.97516,3.59792 -14.3125,3.8125 -1.16728,0.0524 -1.16728,0.0524 -2.35815,0.10596 -5.5808,0.17881 -11.08533,5e-5 -16.64185,-0.54346 -0.69843,-0.057 -1.39686,-0.11392 -2.11645,-0.17261 -3.40257,-0.41144 -5.6584,-1.25803 -8.55151,-3.10083 -5.74137,-8.81749 -0.65104,-24.18802 0.94531,-34.02344 0.31248,-1.96429 0.62423,-3.9287 0.9353,-5.89322 0.83072,-5.23229 1.672,-10.46283 2.51555,-15.69307 0.87392,-5.42944 1.73832,-10.8604 2.60408,-16.29115 C 254.99929,539.79821 256.99596,527.39853 259,515 c 0.13129,-0.81244 0.26257,-1.62487 0.39783,-2.46193 2.3389,-14.47077 4.70668,-28.93654 7.10574,-43.39746 1.07439,-6.50463 2.1106,-13.01453 3.12648,-19.52855 0.71629,-4.59012 1.44178,-9.17877 2.16759,-13.7674 0.33771,-2.15285 0.67078,-4.30644 0.99872,-6.46081 0.44791,-2.94115 0.91196,-5.87935 1.37943,-8.81745 0.18857,-1.28331 0.18857,-1.28331 0.38095,-2.59254 C 275.43359,412.59202 276.77388,407.4923 280,403 c 9.78577,-4.50145 22.56252,-3.16278 33.12891,-3.16797 z M 325,441 c -3.29645,8.0001 -4.68339,16.55961 -6.35546,25.01562 -0.30924,1.54465 -0.61884,3.08923 -0.92879,4.63373 -0.64486,3.22 -1.28568,6.44077 -1.92351,9.66217 -0.81655,4.12266 -1.64259,8.24335 -2.47155,12.36353 -0.63925,3.18204 -1.27382,6.365 -1.90695,9.54827 -0.30285,1.52008 -0.60707,3.03988 -0.91269,4.5594 -0.42587,2.12133 -0.8455,4.2438 -1.2635,6.36669 -0.23966,1.2053 -0.47932,2.41059 -0.72624,3.65241 -0.44917,2.80951 -0.61717,5.36235 -0.51131,8.19818 1.98,-0.495 1.98,-0.495 4,-1 0,0.66 0,1.32 0,2 4.24994,0.059 8.49978,0.0939 12.75,0.125 1.78084,0.0251 1.78084,0.0251 3.59766,0.0508 10.00511,0.0547 19.80407,-0.50677 29.08984,-4.55078 1.42119,-0.59942 1.42119,-0.59942 2.8711,-1.21094 2.9232,-1.53585 5.28444,-3.15125 7.6914,-5.41406 0,-0.99 0,-1.98 0,-3 0.59813,-0.0748 1.19625,-0.14953 1.8125,-0.22656 4.44728,-1.57243 6.17562,-6.77126 8.1875,-10.77344 5.64494,-13.21309 7.73813,-28.54495 2.45704,-42.24221 -4.60909,-8.7239 -11.1726,-14.46117 -20.47657,-17.39453 -5.94671,-1.46845 -12.07381,-1.74443 -18.16797,-2.11328 -1.28342,-0.0854 -1.28342,-0.0854 -2.59277,-0.17261 C 334.15915,438.82712 329.6045,438.63632 325,441 Z M 496,280 c 1.03866,0.0678 2.07732,0.13567 3.14746,0.20557 9.3268,0.59005 18.62944,0.94282 27.97293,1.12436 57.92675,1.22605 115.22593,10.07562 170.73508,26.73159 2.05989,0.61477 4.12496,1.21246 6.19531,1.79102 1.36705,0.38623 1.36705,0.38623 2.76172,0.78027 0.7902,0.21801 1.58039,0.43603 2.39453,0.66065 C 711,312 711,312 712,314 c 2.77888,0.61666 2.77888,0.61666 6,1 1.67062,0.27844 1.67062,0.27844 3.375,0.5625 0.86625,0.14437 1.7325,0.28875 2.625,0.4375 0,0.66 0,1.32 0,2 0.59281,0.16218 1.18562,0.32436 1.79639,0.49145 6.68836,1.90808 12.97325,4.38377 19.32861,7.19605 1.00555,0.44134 2.0111,0.88269 3.04712,1.3374 7.76098,3.43597 15.36807,7.10903 22.90991,10.99854 2.03487,1.03608 4.08321,2.04046 6.13672,3.03906 6.355,3.09779 12.60554,6.17585 18.39844,10.26172 1.90144,1.33724 3.81573,2.61907 5.76562,3.88281 11.87119,7.71628 22.95557,16.14981 33.38281,25.74219 2.08605,1.91464 4.2112,3.76901 6.35938,5.61328 7.80301,6.83349 14.42962,14.31936 20.875,22.4375 0.59684,0.72961 1.19367,1.45922 1.80859,2.21094 27.72793,34.45179 39.31647,77.32099 34.73047,121.15625 C 894.36912,563.03922 879.01956,591.11328 860,615 c -0.6596,0.83692 -1.31919,1.67385 -1.99878,2.53613 -5.5183,6.89162 -11.42926,13.24225 -17.68872,19.46387 -0.4815,0.47967 -0.96299,0.95934 -1.45908,1.45355 C 831.31948,645.93971 823.64655,652.83555 815,659 c -1.36746,0.99963 -2.73463,1.99965 -4.10156,3 -9.00477,6.52693 -18.24582,12.48247 -27.89844,18 -0.69609,0.3988 -1.39219,0.79761 -2.10938,1.2085 -12.14545,6.93831 -12.14545,6.93831 -17.23046,9.42431 C 760.93321,691.863 760.93321,691.863 759,694 c -0.80695,0.26684 -1.61391,0.53367 -2.44531,0.80859 -3.96344,1.32841 -7.61642,3.03704 -11.39209,4.82056 -41.41367,19.54185 -85.88009,30.88663 -131.01197,37.85791 -2.73017,0.44449 -5.42534,0.96848 -8.135,1.52075 -9.25749,1.70748 -18.70837,2.26053 -28.07813,3.05469 -1.02341,0.0884 -2.04681,0.17686 -3.10123,0.26797 -14.76139,1.27118 -29.46461,2.20993 -44.27914,2.55381 -2.6809,0.12132 -5.31624,0.39976 -7.98291,0.69775 -4.92598,0.48393 -9.54216,0.19257 -14.45703,-0.30176 -4.33307,-0.38959 -8.65673,-0.46977 -13.00464,-0.57006 C 439.62199,743.40141 382.91236,736.17687 330,719 c -1.07169,-0.33999 -2.14339,-0.67998 -3.24756,-1.03027 -13.24657,-4.20941 -26.25981,-8.74917 -39.04004,-14.22705 -1.26529,-0.53972 -1.26529,-0.53972 -2.55615,-1.09034 -0.73412,-0.31976 -1.46824,-0.63953 -2.22461,-0.96899 C 280.87012,700.83324 280.87012,700.83324 278,701 c 0,-0.66 0,-1.32 0,-2 -0.77859,-0.22301 -1.55719,-0.44602 -2.35937,-0.67578 -5.80837,-2.1127 -11.1791,-5.09259 -16.64844,-7.95508 -1.30324,-0.66806 -1.30324,-0.66806 -2.63281,-1.34961 -1.18385,-0.61718 -1.18385,-0.61718 -2.39161,-1.24682 -0.64936,-0.255 -1.29873,-0.50999 -1.96777,-0.77271 -0.66,0.33 -1.32,0.66 -2,1 -0.495,-1.485 -0.495,-1.485 -1,-3 -1.69771,-1.30066 -1.69771,-1.30066 -3.83203,-2.41797 -0.79269,-0.44553 -1.58539,-0.89106 -2.4021,-1.3501 -0.85086,-0.46841 -1.70172,-0.93682 -2.57837,-1.41943 C 223.15609,670.19122 207.74607,658.83037 193,646 c -0.86496,-0.75152 -1.72992,-1.50305 -2.62109,-2.27734 C 172.72203,628.09985 148.85784,605.76611 143,582 c -0.66,-0.33 -1.32,-0.66 -2,-1 -8.43425,-15.7164 -13.5046,-34.28236 -15,-52 -0.0656,-0.75539 -0.13116,-1.51078 -0.19873,-2.28906 C 122.98106,492.19209 131.17636,461.99122 148,432 c 0.54443,-0.98601 0.54443,-0.98601 1.09985,-1.99194 2.03353,-3.64108 4.25242,-6.71582 7.03296,-9.82837 1.90472,-2.2235 3.68022,-4.52709 5.45508,-6.85474 4.86392,-6.35177 10.01954,-12.34696 15.47461,-18.19995 0.65541,-0.70826 1.31082,-1.41652 1.98608,-2.14624 0.61432,-0.65041 1.22864,-1.30083 1.86158,-1.97095 0.54793,-0.5812 1.09586,-1.16241 1.6604,-1.76123 C 184,388 184,388 186,388 c 0,-0.66 0,-1.32 0,-2 2.41994,-2.5823 5.27503,-4.74945 8,-7 0.52578,-0.43667 1.05155,-0.87334 1.59326,-1.32324 10.45911,-8.65192 21.39636,-16.43019 32.74658,-23.86426 2.67038,-1.69858 2.67038,-1.69858 4.66016,-3.8125 1.68922,-0.89137 3.40191,-1.73851 5.125,-2.5625 5.09085,-2.49348 10.01961,-5.18243 14.9375,-8 C 269.61357,330 269.61357,330 274,330 c 0.33,-0.66 0.66,-1.32 1,-2 2.19873,-1.03394 2.19873,-1.03394 5.11719,-2.13672 1.07097,-0.40855 2.14194,-0.8171 3.24536,-1.23804 1.15911,-0.4332 2.31822,-0.86641 3.51245,-1.31274 1.19456,-0.45061 2.38912,-0.90122 3.61987,-1.36548 2.40967,-0.90769 4.82038,-1.81259 7.23218,-2.7146 2.6514,-0.99838 5.29107,-2.01807 7.92529,-3.06055 C 333.79801,305.17053 363.41513,297.88492 393,292 c 1.25152,-0.24976 2.50304,-0.49951 3.79248,-0.75684 29.03618,-5.66349 59.5146,-9.57446 89.14502,-9.30566 0.98162,0.005 1.96324,0.009 2.97461,0.0137 2.3627,0.0115 4.72526,0.0278 7.08789,0.0488 0,-0.66 0,-1.32 0,-2 z m -83,42 c -1.01159,0.1824 -2.02318,0.3648 -3.06543,0.55273 C 398.91419,324.52595 398.91419,324.52595 388,327 c -2.27599,0.55749 -4.55204,1.11475 -6.82813,1.67187 -19.7019,4.75836 -19.7019,4.75836 -39.09033,10.63135 -2.48732,0.83261 -4.98529,1.62913 -7.48388,2.42725 -19.70586,6.35254 -39.20895,13.46704 -57.52784,23.18603 -2.30915,1.20878 -4.63887,2.37125 -6.97216,3.53272 C 246.36167,380.38705 225.1032,395.57995 206,414 c -0.56332,0.53416 -1.12664,1.06831 -1.70703,1.61865 C 202.82264,417.03949 201.40655,418.516 200,420 c 0,0.66 0,1.32 0,2 -0.66,0 -1.32,0 -2,0 -22.46674,24.06824 -38.08487,57.82818 -37.1875,91.19922 2.47729,37.00458 17.16304,67.48493 42.23438,94.66015 1.58215,1.73404 3.06259,3.48762 4.51562,5.32813 3.18139,3.67083 6.73278,6.68234 10.4375,9.8125 1.45986,1.27424 1.45986,1.27424 2.94922,2.57422 11.21607,9.74353 23.2905,17.8093 36.05078,25.42578 0.99516,0.6123 1.99031,1.22461 3.01563,1.85547 26.61047,15.89419 56.52123,26.62864 86.08447,35.56299 1.64111,0.50233 3.2717,1.03881 4.8999,1.58154 2.40361,0.64286 4.80864,1.27304 7.21875,1.89062 1.08189,0.27736 1.08189,0.27736 2.18564,0.56032 C 378.16378,696.98282 395.8831,701.13209 414,704 c 1.10747,0.1787 2.21493,0.35739 3.35596,0.5415 C 472.88149,713.29371 532.28705,715.08984 588,707 c 0.33,-0.33 0.66,-0.66 1,-1 2.00967,-0.1794 4.02412,-0.30549 6.03906,-0.41016 8.19075,-0.53867 16.24366,-1.6755 24.33594,-3.02734 1.14585,-0.19066 1.14585,-0.19066 2.31485,-0.38516 C 661.39926,695.47696 700.61154,684.37786 737,667 c 0.9162,-0.43731 1.8324,-0.87463 2.77637,-1.3252 C 768.04115,652.06584 799.68524,634.60483 820,610 c 0,-0.66 0,-1.32 0,-2 0.66,0 1.32,0 2,0 2.77724,-2.98274 5.24933,-6.21521 7.76221,-9.42236 1.16158,-1.4805 2.33786,-2.94943 3.51513,-4.41748 C 839.45302,586.24791 844.37717,577.87945 849,569 c 0.32774,-0.6281 0.65549,-1.25619 0.99316,-1.90332 C 862.58487,542.57191 866.78692,514.09747 861,487 c -0.14002,-0.65823 -0.28005,-1.31646 -0.42432,-1.99463 -2.14785,-9.67763 -5.46649,-18.5453 -9.70068,-27.50537 -0.43184,-0.91467 -0.86367,-1.82934 -1.30859,-2.77173 C 847.17887,449.63706 847.17887,449.63706 843,446 c -0.33893,-1.33192 -0.67103,-2.66558 -1,-4 -6.7897,-11.3688 -15.67252,-20.68759 -25,-30 -0.6484,-0.6832 -1.2968,-1.36641 -1.96484,-2.07031 -5.99401,-6.24327 -12.58917,-11.49469 -19.4668,-16.71338 -1.46773,-1.13827 -2.88752,-2.3376 -4.30274,-3.54053 C 789.06768,387.70267 789.06768,387.70267 786,388 c 0,-0.66 0,-1.32 0,-2 -2.55078,-1.74673 -5.09691,-3.35838 -7.75,-4.9375 -1.22131,-0.73199 -1.22131,-0.73199 -2.46729,-1.47876 C 773.19532,378.0439 770.59889,376.52035 768,375 c -0.78021,-0.46148 -1.56041,-0.92297 -2.36426,-1.39844 C 732.27354,353.99507 694.38638,341.42104 657,332 c -1.58192,-0.40509 -1.58192,-0.40509 -3.1958,-0.81836 C 625.33489,323.9652 596.22476,319.64359 567,317 c -1.53809,-0.13988 -1.53809,-0.13988 -3.10725,-0.28258 -17.74298,-1.56894 -35.39823,-2.08346 -53.20582,-2.03528 -2.0983,0.005 -4.19659,0.008 -6.2949,0.01 C 473.57224,314.73915 443.38766,316.51545 413,322 Z" >
       <animate
               id="animateColor"
               attributeName="fill"
               values="black;black;#eab308;black"
               keyTimes="0;0.2;0.8;1"
               begin="	56s;animateColor.end+72s"
               dur="4s"
               repeatCount="1" />
    </path>
</g></g></svg>
